<?xml version="1.0" encoding="UTF-8"?>
<svg width="24px" height="24px" viewBox="0 0 24 24" version="1.1" xmlns="http://www.w3.org/2000/svg" xmlns:xlink="http://www.w3.org/1999/xlink">
    <title>🥬Icons/ ic_local</title>
    <g id="🥬---Icons" stroke="none" stroke-width="1" fill="none" fill-rule="evenodd" stroke-linecap="round" stroke-linejoin="round">
        <g id="backup-local" fill="#2A3282" transform="translate(2.000000, 2.000000)">
            <g id="A" transform="translate(0.124224, 0.124224)">
                <path d="M1.31055901,14.5319255 C0.63552795,14.5319255 0,15.1540373 0,15.7763975 L0,19.8757764 L19.8757764,19.8757764 L19.8757764,15.7763975 C19.8757764,15.1542857 19.2007453,14.5321739 18.5652174,14.5321739 L1.31055901,14.5321739 L1.31055901,14.5319255 Z M18.1858385,16.8084472 C17.8064596,16.8084472 17.5108075,16.5190062 17.5108075,16.1863354 C17.5108075,15.8536646 17.8064596,15.5642236 18.1858385,15.5642236 C18.5652174,15.5642236 18.8608696,15.8536646 18.8608696,16.1863354 C18.8608696,16.5190062 18.5652174,16.8084472 18.1858385,16.8084472 Z M8.88347826,6.99826087 L5.92223602,4.09962733 L5.92223602,6.50136646 L9.9378882,10.3937888 L13.9582609,6.50161491 L13.9582609,4.09987578 L10.9970186,6.99826087 L10.9970186,0 L8.88322981,0 L8.88347826,6.99826087 Z M16.0720497,9.93540373 L11.632795,9.93540373 L10.5291925,10.9724224 L9.9378882,11.5513043 L9.34658385,10.9724224 L8.24795031,9.93540373 L3.8084472,9.93540373 L1.01490683,13.6636025 L18.9050932,13.6636025 L16.0720497,9.93540373 Z" id="Shape"></path>
            </g>
            <g id="A">
                <path d="M1.31055901,14.5319255 C0.63552795,14.5319255 0,15.1540373 0,15.7763975 L0,19.8757764 L19.8757764,19.8757764 L19.8757764,15.7763975 C19.8757764,15.1542857 19.2007453,14.5321739 18.5652174,14.5321739 L1.31055901,14.5321739 L1.31055901,14.5319255 Z M18.1858385,16.8084472 C17.8064596,16.8084472 17.5108075,16.5190062 17.5108075,16.1863354 C17.5108075,15.8536646 17.8064596,15.5642236 18.1858385,15.5642236 C18.5652174,15.5642236 18.8608696,15.8536646 18.8608696,16.1863354 C18.8608696,16.5190062 18.5652174,16.8084472 18.1858385,16.8084472 Z M8.88347826,6.99826087 L5.92223602,4.09962733 L5.92223602,6.50136646 L9.9378882,10.3937888 L13.9582609,6.50161491 L13.9582609,4.09987578 L10.9970186,6.99826087 L10.9970186,0 L8.88322981,0 L8.88347826,6.99826087 Z M16.0720497,9.93540373 L11.632795,9.93540373 L10.5291925,10.9724224 L9.9378882,11.5513043 L9.34658385,10.9724224 L8.24795031,9.93540373 L3.8084472,9.93540373 L1.01490683,13.6636025 L18.9050932,13.6636025 L16.0720497,9.93540373 Z" id="Shape"></path>
            </g>
        </g>
    </g>
</svg>