<?xml version="1.0" encoding="UTF-8"?>
<svg width="24px" height="24px" viewBox="0 0 24 24" version="1.1" xmlns="http://www.w3.org/2000/svg" xmlns:xlink="http://www.w3.org/1999/xlink">
    <title>#gr</title>
    <g id="🥬---Icons" stroke="none" stroke-width="1" fill="none" fill-rule="evenodd">
        <g id="#gr">
            <rect id="Rectangle" fill="#000000" fill-rule="nonzero" opacity="0" x="0" y="0" width="24" height="24"></rect>
            <circle id="Oval" fill="#FFFFFF" cx="12" cy="12" r="6"></circle>
            <path d="M12,2 C6.4771525,2 2,6.4771525 2,12 C2,17.5228475 6.4771525,22 12,22 C17.5228475,22 22,17.5228475 22,12 C22,9.3478351 20.9464316,6.80429597 19.0710678,4.92893219 C17.195704,3.0535684 14.6521649,2 12,2 Z M16.3,9.61 L11.73,15.61 C11.5412074,15.855247 11.2494966,15.9992561 10.94,16.0000145 C10.6322197,16.001658 10.3408221,15.861492 10.15,15.62 L7.71,12.51 C7.49028166,12.2277602 7.43782669,11.8497415 7.57239438,11.5183399 C7.70696206,11.1869384 8.00810836,10.9525017 8.36239438,10.9033399 C8.7166804,10.8541782 9.07028166,10.9977602 9.29,11.28 L10.92,13.36 L14.7,8.36 C14.917932,8.07418751 15.2717886,7.92635122 15.6282755,7.97217964 C15.9847624,8.01800806 16.2897207,8.25053875 16.4282755,8.58217966 C16.5668304,8.91382056 16.517932,9.29418753 16.3,9.58 L16.3,9.61 Z" id="Shape" fill="#00AB55" fill-rule="nonzero"></path>
        </g>
    </g>
</svg>