<svg width="24" height="24" viewBox="0 0 24 24" fill="none" xmlns="http://www.w3.org/2000/svg">
<path opacity="0.18" d="M20.4615 3.34613H3.53846C3.13044 3.34613 2.73912 3.5119 2.4506 3.80698C2.16209 4.10205 2 4.50226 2 4.91956V19.0804C2 19.4977 2.16209 19.8979 2.4506 20.193C2.73912 20.4881 3.13044 20.6538 3.53846 20.6538H20.4615C20.8696 20.6538 21.2609 20.4881 21.5494 20.193C21.8379 19.8979 22 19.4977 22 19.0804V4.91956C22 4.50226 21.8379 4.10205 21.5494 3.80698C21.2609 3.5119 20.8696 3.34613 20.4615 3.34613ZM8.61539 13.7307C8.77859 13.8559 8.88649 14.0423 8.91535 14.2489C8.9442 14.4554 8.89164 14.6652 8.76923 14.8321C8.64682 14.9991 8.46459 15.1094 8.26263 15.1389C8.06067 15.1684 7.85552 15.1147 7.69231 14.9895L4.61538 12.6293C4.51985 12.5561 4.44231 12.461 4.3889 12.3518C4.3355 12.2426 4.30769 12.1221 4.30769 12C4.30769 11.8778 4.3355 11.7574 4.3889 11.6481C4.44231 11.5389 4.51985 11.4439 4.61538 11.3706L7.69231 9.01047C7.85552 8.88528 8.06067 8.83152 8.26263 8.86103C8.46459 8.89054 8.64682 9.00089 8.76923 9.16781C8.89164 9.33473 8.9442 9.54454 8.91535 9.7511C8.88649 9.95765 8.77859 10.144 8.61539 10.2692L6.35865 12L8.61539 13.7307ZM14.2779 6.70933L11.201 17.7233C11.1747 17.8244 11.1291 17.9191 11.0666 18.002C11.0042 18.0848 10.9262 18.1541 10.8373 18.2057C10.7483 18.2574 10.6502 18.2903 10.5487 18.3027C10.4471 18.3152 10.3442 18.3067 10.2459 18.278C10.1475 18.2492 10.0558 18.2007 9.97606 18.1352C9.89629 18.0697 9.83009 17.9887 9.78132 17.8967C9.73255 17.8048 9.70219 17.7039 9.69203 17.5998C9.68186 17.4957 9.69209 17.3906 9.72212 17.2906L12.799 6.27664C12.8582 6.0797 12.9905 5.91434 13.1675 5.8161C13.3446 5.71786 13.5523 5.69457 13.7459 5.75123C13.9396 5.8079 14.1038 5.94 14.2033 6.11915C14.3028 6.2983 14.3295 6.5102 14.2779 6.70933ZM19.3846 12.6293L16.3077 14.9895C16.1445 15.1147 15.9393 15.1684 15.7374 15.1389C15.5354 15.1094 15.3532 14.9991 15.2308 14.8321C15.1084 14.6652 15.0558 14.4554 15.0847 14.2489C15.1135 14.0423 15.2214 13.8559 15.3846 13.7307L17.6413 12L15.3846 10.2692C15.3038 10.2072 15.2357 10.1296 15.1843 10.0407C15.1328 9.95177 15.0989 9.85337 15.0847 9.7511C15.0704 9.64882 15.0759 9.54467 15.101 9.44459C15.1261 9.34451 15.1702 9.25046 15.2308 9.16781C15.2914 9.08516 15.3673 9.01553 15.4542 8.96289C15.5412 8.91025 15.6374 8.87564 15.7374 8.86103C15.8374 8.84642 15.9392 8.8521 16.0371 8.87774C16.1349 8.90338 16.2269 8.94848 16.3077 9.01047L19.3846 11.3706C19.4802 11.4439 19.5577 11.5389 19.6111 11.6481C19.6645 11.7574 19.6923 11.8778 19.6923 12C19.6923 12.1221 19.6645 12.2426 19.6111 12.3518C19.5577 12.461 19.4802 12.5561 19.3846 12.6293Z" fill="#637381"/>
<path fill-rule="evenodd" clip-rule="evenodd" d="M8.91527 14.2491C8.88642 14.0426 8.77852 13.8562 8.61531 13.731L6.35858 12.0002L8.61531 10.2695C8.77852 10.1443 8.88642 9.95789 8.91527 9.75134C8.94412 9.54479 8.89156 9.33497 8.76916 9.16805C8.64675 9.00113 8.46452 8.89078 8.26256 8.86128C8.06059 8.83177 7.85544 8.88552 7.69223 9.01071L4.61531 11.3709C4.51977 11.4441 4.44223 11.5392 4.38883 11.6484C4.33542 11.7576 4.30762 11.8781 4.30762 12.0002C4.30762 12.1224 4.33542 12.2428 4.38883 12.3521C4.44223 12.4613 4.51977 12.5563 4.61531 12.6296L7.69223 14.9897C7.85544 15.1149 8.06059 15.1687 8.26256 15.1392C8.46452 15.1097 8.64675 14.9993 8.76916 14.8324C8.89156 14.6655 8.94412 14.4557 8.91527 14.2491ZM11.2009 17.7236L14.2778 6.70957C14.3295 6.51045 14.3027 6.29854 14.2032 6.11939C14.1038 5.94024 13.9395 5.80814 13.7459 5.75148C13.5522 5.69481 13.3445 5.7181 13.1675 5.81635C12.9904 5.91459 12.8581 6.07994 12.799 6.27688L9.72204 17.2909C9.69202 17.3909 9.68179 17.496 9.69195 17.6C9.70212 17.7041 9.73247 17.8051 9.78124 17.897C9.83001 17.9889 9.89621 18.07 9.97598 18.1354C10.0557 18.2009 10.1475 18.2494 10.2458 18.2782C10.3441 18.307 10.4471 18.3154 10.5486 18.303C10.6502 18.2906 10.7483 18.2576 10.8372 18.206C10.9261 18.1543 11.0041 18.085 11.0665 18.0022C11.129 17.9194 11.1747 17.8247 11.2009 17.7236ZM16.3076 14.9897L19.3845 12.6296C19.4801 12.5563 19.5576 12.4613 19.611 12.3521C19.6644 12.2428 19.6922 12.1224 19.6922 12.0002C19.6922 11.8781 19.6644 11.7576 19.611 11.6484C19.5576 11.5392 19.4801 11.4441 19.3845 11.3709L16.3076 9.01071C16.2268 8.94872 16.1348 8.90362 16.037 8.87798C15.9391 8.85234 15.8373 8.84666 15.7373 8.86128C15.6373 8.87589 15.5411 8.9105 15.4542 8.96314C15.3672 9.01577 15.2913 9.0854 15.2307 9.16805C15.1701 9.2507 15.126 9.34475 15.1009 9.44483C15.0758 9.54491 15.0703 9.64907 15.0846 9.75134C15.0989 9.85361 15.1327 9.95201 15.1842 10.0409C15.2356 10.1298 15.3037 10.2075 15.3845 10.2695L17.6413 12.0002L15.3845 13.731C15.2213 13.8562 15.1134 14.0426 15.0846 14.2491C15.0557 14.4557 15.1083 14.6655 15.2307 14.8324C15.3531 14.9993 15.5353 15.1097 15.7373 15.1392C15.9393 15.1687 16.1444 15.1149 16.3076 14.9897Z" fill="#637381"/>
</svg>
