<?xml version="1.0" encoding="UTF-8"?>
<svg width="24px" height="24px" viewBox="0 0 24 24" version="1.1" xmlns="http://www.w3.org/2000/svg" xmlns:xlink="http://www.w3.org/1999/xlink">
    <title>🥬Icons/ ic_ai_write</title>
    <g id="🥬Icons/-ic_ai_write" stroke="none" stroke-width="1" fill="none" fill-rule="evenodd">
        <g id="#gr" fill="#000000" fill-rule="nonzero" opacity="0">
            <rect id="Rectangle" x="0" y="0" width="24" height="24"></rect>
        </g>
        <g id="Group" transform="translate(2, 2)" fill-rule="nonzero">
            <path d="M15.6058636,11.5730909 C14.8143182,10.7815455 13.8157273,10.2472273 12.7181364,10.0278182 L10.5046818,9.58540909 C10.2486364,9.53413636 9.98386364,9.61436364 9.79913636,9.79909091 C9.61445455,9.98381818 9.53431818,10.2485455 9.58545455,10.5046818 L10.0279091,12.7180909 C10.2473182,13.8157727 10.7816364,14.8142727 11.5731364,15.6058182 L15.1320909,19.1647273 C15.6706818,19.7033182 16.3867727,20 17.1484545,20 C17.9101364,20 18.6262273,19.7033182 19.1648182,19.1647273 C19.7034091,18.6261364 20,17.9100455 20,17.1484091 C20,16.3867273 19.7034091,15.6706364 19.1648182,15.1320455 L15.6058636,11.5730909 Z M18.0599091,18.0599545 C17.8165,18.3033636 17.4927273,18.4375 17.1484545,18.4375 C16.8041364,18.4375 16.4804091,18.3033636 16.2369545,18.0599091 L12.678,14.501 C12.1054091,13.9283182 11.7188182,13.2059545 11.5601364,12.4119091 L11.3473636,11.3473182 L12.4119091,11.5600909 C13.206,11.7188182 13.9284091,12.1053182 14.501,12.678 L18.0599545,16.2369091 C18.3034091,16.4803636 18.4375,16.8041364 18.4375,17.1484091 C18.4375,17.4927273 18.3034091,17.8164545 18.0599091,18.0599545 Z" id="Shape" fill="#00AB55"></path>
            <path d="M6.91404545,1.5625 L4.55313636,1.5625 C4.23059091,0.653204545 3.36222727,0 2.34375,0 C1.05140455,0 0,1.05140455 0,2.34375 C0,3.36222727 0.653204545,4.23059091 1.5625,4.55313636 L1.5625,6.875 C1.5625,7.3065 1.91226364,7.65627273 2.34375,7.65627273 C2.77523636,7.65627273 3.125,7.3065 3.125,6.875 L3.125,4.55313636 C3.78977273,4.31736364 4.31736364,3.78981818 4.55313636,3.125 L6.91404545,3.125 C7.34554545,3.125 7.69531818,2.77523636 7.69531818,2.34375 C7.69531818,1.91226364 7.34554545,1.5625 6.91404545,1.5625 Z M2.34375,3.125 C1.91296818,3.125 1.5625,2.77453182 1.5625,2.34375 C1.5625,1.91296818 1.91296818,1.5625 2.34375,1.5625 C2.77453182,1.5625 3.125,1.91296818 3.125,2.34375 C3.125,2.77453182 2.77453182,3.125 2.34375,3.125 Z M13.0468636,3.125 L15.4468636,3.125 C15.6826364,3.78977273 16.2101818,4.31736364 16.875,4.55313636 L16.875,6.875 C16.875,7.3065 17.2247727,7.65627273 17.6562727,7.65627273 C18.0877273,7.65627273 18.4375,7.3065 18.4375,6.875 L18.4375,4.55313636 C19.3468182,4.23063636 20,3.36222727 20,2.34375 C20,1.05140455 18.9485909,0 17.6562727,0 C16.6377727,0 15.7694091,0.653204545 15.4468636,1.5625 L13.0468636,1.5625 C12.6154091,1.5625 12.2656364,1.91226364 12.2656364,2.34375 C12.2656364,2.77523636 12.6154091,3.125 13.0468636,3.125 Z M17.6562727,1.5625 C18.0870455,1.5625 18.4375,1.91296818 18.4375,2.34375 C18.4375,2.77453182 18.0870455,3.125 17.6562727,3.125 C17.2254545,3.125 16.875,2.77453182 16.875,2.34375 C16.875,1.91296818 17.2254545,1.5625 17.6562727,1.5625 Z M6.91404545,16.875 L4.55313636,16.875 C4.31736364,16.2102273 3.78981818,15.6826364 3.125,15.4468636 L3.125,13.0859545 C3.125,12.6544545 2.77523636,12.3046818 2.34375,12.3046818 C1.91226364,12.3046818 1.5625,12.6544545 1.5625,13.0859545 L1.5625,15.4468636 C0.653204545,15.7694091 0,16.6377727 0,17.6562727 C0,18.9485909 1.05140455,20 2.34375,20 C3.36222727,20 4.23059091,19.3468182 4.55313636,18.4375 L6.91404545,18.4375 C7.34554545,18.4375 7.69531818,18.0877273 7.69531818,17.6562727 C7.69531818,17.2247727 7.34554545,16.875 6.91404545,16.875 Z M2.34375,18.4375 C1.91296818,18.4375 1.5625,18.0870455 1.5625,17.6562727 C1.5625,17.2254545 1.91296818,16.875 2.34375,16.875 C2.77453182,16.875 3.125,17.2254545 3.125,17.6562727 C3.125,18.0870455 2.77453182,18.4375 2.34375,18.4375 Z" id="Shape" fill="#005249"></path>
            <path d="M10.9375,2.34375 C10.9375,2.88308636 10.5002727,3.32031364 9.96095455,3.32031364 C9.42159091,3.32031364 8.98436364,2.88308636 8.98436364,2.34375 C8.98436364,1.80441364 9.42159091,1.36718636 9.96095455,1.36718636 C10.5002727,1.36718636 10.9375,1.80441364 10.9375,2.34375 Z M9.96095455,16.6796818 C9.42159091,16.6796818 8.98436364,17.1169091 8.98436364,17.6562727 C8.98436364,18.1955909 9.42159091,18.6328182 9.96095455,18.6328182 C10.5002727,18.6328182 10.9375,18.1955909 10.9375,17.6562727 C10.9375,17.1169091 10.5002727,16.6796818 9.96095455,16.6796818 Z M17.6562727,9.10154545 C17.1169091,9.10154545 16.6796818,9.53877273 16.6796818,10.0781364 C16.6796818,10.6174545 17.1169091,11.0546818 17.6562727,11.0546818 C18.1955909,11.0546818 18.6328182,10.6174545 18.6328182,10.0781364 C18.6328182,9.53877273 18.1955909,9.10154545 17.6562727,9.10154545 Z M2.34375,9.10154545 C1.80441364,9.10154545 1.36718636,9.53877273 1.36718636,10.0781364 C1.36718636,10.6174545 1.80441364,11.0546818 2.34375,11.0546818 C2.88308636,11.0546818 3.32031364,10.6174545 3.32031364,10.0781364 C3.32031364,9.53877273 2.88308636,9.10154545 2.34375,9.10154545 Z" id="Shape" fill="#00AB55"></path>
            <path d="M14.7036818,16.5191818 C14.0238636,15.8393636 13.5605455,14.9735 13.3720909,14.0307273 L12.7872727,10.8445455 C12.7136364,10.8261818 10.3515455,10.3515455 10.3515455,10.3515455 L10.794,12.565 C10.9824091,13.5077273 11.4457273,14.3735909 12.1255455,15.0534091 L15.6845,18.6123636 L16.2406818,18.0561818 L14.7036818,16.5191818 Z" id="Path" fill="#00AB55" opacity="0.48"></path>
        </g>
    </g>
</svg>