<?xml version="1.0" encoding="UTF-8"?>
<svg width="18px" height="18px" viewBox="0 0 18 18" version="1.1" xmlns="http://www.w3.org/2000/svg" xmlns:xlink="http://www.w3.org/1999/xlink">
    <title>🥬Icons/ ic_aigc_tone2</title>
    <g id="🥬Icons/-ic_aigc_tone2" stroke="none" stroke-width="1" fill="none" fill-rule="evenodd">
        <g id="Group" transform="translate(2, 2)" fill="#000000" fill-rule="nonzero">
            <path d="M8.5879933,8.74995096 L2.26858427,13.3809435 C2.06237071,13.5320712 1.77677709,13.5103353 1.59581026,13.3297401 L0.668963604,12.4028934 C0.489497279,12.2217811 0.468336248,11.937069 0.619056477,11.7314157 L5.25004904,5.4120067 C5.55923031,7.11061675 6.88820718,8.44010993 8.58669701,8.74995096 L8.5879933,8.74995096 Z" id="Path" opacity="0.2"></path>
            <path d="M9.33335949,0 C6.75708179,0.00250106881 4.66922005,2.09036281 4.66671898,4.66664051 C4.66719393,4.87082396 4.68083326,5.07476436 4.70755208,5.27719265 L0.202299553,11.4216027 C-0.102520782,11.8338659 -0.0586394804,12.4073586 0.305354531,12.768447 L1.23155304,13.6946455 C1.59264137,14.0586395 2.16613411,14.1025208 2.57839735,13.7977004 L8.7234555,9.29115163 C8.92564132,9.31827621 9.12936445,9.33234847 9.33335949,9.33328102 C11.9106739,9.33328102 14,7.2439549 14,4.66664051 C14,2.08932612 11.9106739,0 9.33335949,0 L9.33335949,0 Z M12.9629714,4.66664051 C12.9639056,5.45012263 12.7100297,6.21266033 12.2396395,6.83922093 L7.16142722,1.7603605 C8.26160929,0.938669331 9.73130767,0.808196074 10.9590354,1.42322581 C12.1867632,2.03825555 12.962298,3.29347755 12.9629714,4.66664051 L12.9629714,4.66664051 Z M1.96525264,12.9628903 L1.03710969,12.0347474 L5.06467971,6.54625961 C5.53662317,7.61172864 6.38827136,8.46337683 7.45374039,8.93532029 L1.96525264,12.9628903 Z M5.70374707,4.66664051 C5.70271888,3.88334211 5.95661175,3.120981 6.42707948,2.49470824 L11.5046436,7.57227238 C10.4045585,8.39350967 8.93527035,8.52381469 7.70782749,7.90899611 C6.48038463,7.29417752 5.70484876,6.03945393 5.70374707,4.66664051 Z M5.55143624,8.44791562 C5.75376899,8.65038103 5.75376899,8.97850164 5.55143624,9.18096706 L5.03292063,9.69948268 C4.9031467,9.83607847 4.70948896,9.8915286 4.52708583,9.84431864 C4.3446827,9.79710868 4.20224318,9.65466916 4.15503322,9.47226602 C4.10782326,9.28986289 4.16327339,9.09620515 4.29986918,8.96643123 L4.81838479,8.44791562 C4.9155818,8.35026578 5.04764631,8.29531463 5.18542415,8.29519283 C5.323202,8.29507142 5.4553633,8.34978936 5.55273253,8.44726747 L5.55143624,8.44791562 Z" id="Shape"></path>
        </g>
    </g>
</svg>