<?xml version="1.0" encoding="UTF-8"?>
<svg width="24px" height="24px" viewBox="0 0 24 24" version="1.1" xmlns="http://www.w3.org/2000/svg" xmlns:xlink="http://www.w3.org/1999/xlink">
    <title>🥬Icons/ ic_aigc_draw_keep</title>
    <g id="🥬Icons/-ic_aigc_draw_keep" stroke="none" stroke-width="1" fill="none" fill-rule="evenodd">
        <g id="#gr" fill="#000000" fill-rule="nonzero" opacity="0">
            <rect id="Rectangle" x="0" y="0" width="24" height="24"></rect>
        </g>
        <g id="Group" transform="translate(3.25, 3)" fill="#000000" fill-rule="nonzero">
            <path d="M10.9999965,18 C10.7166667,18 10.479,17.904 10.287,17.712 C10.095,17.52 9.99933333,17.2826667 9.99999654,17 C9.99999654,16.7166667 10.096,16.479 10.288,16.287 C10.48,16.095 10.7173333,15.9993333 10.9999965,16 C11.7833333,16 12.479,15.8456667 13.087,15.537 C13.695,15.2283333 13.9993333,14.8826667 13.9999965,14.5 C13.9999965,14.2666667 13.8916667,14.05 13.675,13.85 C13.4583333,13.65 13.1583333,13.4666667 12.775,13.3 L14.25,11.825 C14.7833333,12.1416667 15.2083333,12.5166667 15.525,12.95 C15.8416667,13.3833333 15.9999965,13.9 15.9999965,14.5 C15.9999965,15.6 15.475,16.4583333 14.425,17.075 C13.375,17.6916667 12.2333333,18 10.9999965,18 Z M1.575,10.35 C1.09166667,10.0666667 0.708333333,9.73766667 0.425,9.363 C0.141666667,8.98833333 0,8.534 0,8 C0,7.3 0.258333333,6.71233333 0.775,6.237 C1.29166667,5.76166667 2.21666667,5.23266667 3.55,4.65 C4.6,4.16666667 5.271,3.82933333 5.563,3.638 C5.855,3.44666667 6.00066667,3.234 6,3 C6,2.73333333 5.83733333,2.5 5.512,2.3 C5.18666667,2.1 4.68266667,2 4,2 C3.58333333,2 3.23333333,2.05 2.95,2.15 C2.66666667,2.25 2.40833333,2.41666667 2.175,2.65 C1.99166667,2.83333333 1.76666667,2.94166667 1.5,2.975 C1.23333333,3.00833333 0.991666667,2.93333333 0.775,2.75 C0.558333333,2.58333333 0.433333333,2.36666667 0.4,2.1 C0.366666667,1.83333333 0.441666667,1.59166667 0.625,1.375 C0.941666667,0.991666667 1.396,0.666666667 1.988,0.4 C2.58,0.133333333 3.25066667,0 4,0 C5.2,0 6.16666667,0.271 6.9,0.813 C7.63333333,1.355 8,2.084 8,3 C8,3.65 7.75833333,4.23333333 7.275,4.75 C6.79166667,5.26666667 5.81666667,5.84166667 4.35,6.475 C3.38333333,6.89166667 2.75,7.2 2.45,7.4 C2.15,7.6 2,7.8 2,8 C2,8.15 2.09566667,8.296 2.287,8.438 C2.47833333,8.58 2.741,8.71733333 3.075,8.85 L1.575,10.35 L1.575,10.35 Z M15.85,7.4 L11.6,3.15 L12.65,2.1 C13.05,1.7 13.5293333,1.5 14.088,1.5 C14.6466667,1.5 15.1173333,1.7 15.5,2.1 L16.9,3.5 C17.3,3.88333333 17.5,4.35433333 17.5,4.913 C17.5,5.47166667 17.3,5.95066667 16.9,6.35 L15.85,7.4 L15.85,7.4 Z M1,18 L1,13.75 L10.2,4.55 L14.45,8.8 L5.25,18 L1,18 Z" id="Shape"></path>
        </g>
    </g>
</svg>