<?xml version="1.0" encoding="UTF-8"?>
<svg width="24px" height="24px" viewBox="0 0 24 24" version="1.1" xmlns="http://www.w3.org/2000/svg" xmlns:xlink="http://www.w3.org/1999/xlink">
    <title>🥬/ ic_clear_all</title>
    <g id="🥬/-ic_clear_all" stroke="none" stroke-width="1" fill="none" fill-rule="evenodd">
        <g id="#gr">
            <polygon id="Path" points="0 0 24 0 24 24 0 24"></polygon>
            <path d="M6,13 L18,13 C18.55,13 19,12.55 19,12 C19,11.45 18.55,11 18,11 L6,11 C5.45,11 5,11.45 5,12 C5,12.55 5.45,13 6,13 Z M4,17 L16,17 C16.55,17 17,16.55 17,16 C17,15.45 16.55,15 16,15 L4,15 C3.45,15 3,15.45 3,16 C3,16.55 3.45,17 4,17 Z M7,8 C7,8.55 7.45,9 8,9 L20,9 C20.55,9 21,8.55 21,8 C21,7.45 20.55,7 20,7 L8,7 C7.45,7 7,7.45 7,8 Z" id="Shape" fill="#000000" fill-rule="nonzero"></path>
        </g>
    </g>
</svg>