<?xml version="1.0" encoding="UTF-8"?>
<svg width="24px" height="24px" viewBox="0 0 24 24" version="1.1" xmlns="http://www.w3.org/2000/svg" xmlns:xlink="http://www.w3.org/1999/xlink">
    <title>🥬/ ic_bot</title>
    <g id="🥬/-ic_bot" stroke="none" stroke-width="1" fill="none" fill-rule="evenodd">
        <g id="#gr" fill="#000000" fill-rule="nonzero" opacity="0">
            <rect id="Rectangle" x="0" y="0" width="24" height="24"></rect>
        </g>
        <g id="Group" transform="translate(2.000000, 2.000000)" fill="#000000" fill-rule="nonzero">
            <path d="M19.0000001,8.897 L19.0000001,5.922 C19.0000001,4.8174305 18.1045698,3.922 17.0000001,3.922 L11.0000001,3.922 L11.0000001,2.61 C11.3050003,2.336 11.5000001,1.942 11.5000001,1.5 C11.5000001,0.671572875 10.8284274,0 10.0000001,0 C9.17157316,0 8.50000014,0.671572875 8.50000014,1.5 C8.50000014,1.942 8.69500028,2.336 9.00000014,2.61 L9.00000014,3.922 L3.00000014,3.922 C1.89543078,3.922 1.00000014,4.8174305 1.00000014,5.922 L1.00000014,8.92 L0.928000282,8.925 C0.404941807,8.9622685 -0.000275929029,9.39761557 1.40977711e-07,9.922 L1.40977711e-07,11.922 C1.40977711e-07,12.4742847 0.447715532,12.922 1.00000014,12.922 L1.00000014,17.922 C1.00000014,19.0265695 1.89543078,19.922 3.00000014,19.922 L17.0000001,19.922 C18.1045698,19.922 19.0000001,19.0265695 19.0000001,17.922 L19.0000001,12.922 C19.552285,12.922 20.0000001,12.4742847 20.0000001,11.922 L20.0000001,9.984 C20.0115892,9.82880288 19.9869405,9.67303646 19.9280003,9.529 C19.7260003,9.041 19.2930003,8.924 19.0000001,8.897 Z M5.00000028,9.922 C5.00000028,8.818 5.67200028,7.922 6.50000028,7.922 C7.32800028,7.922 8.00000028,8.818 8.00000028,9.922 C8.00000028,11.026 7.32800028,11.922 6.50000028,11.922 C5.67200028,11.922 5.00000028,11.026 5.00000028,9.922 Z M13.9980003,15.922 C12.9970003,15.919 6.00100028,15.922 6.00000028,15.922 L6.00000028,13.922 C6.00000028,13.922 13.0010003,13.92 14.0020003,13.922 L13.9980003,15.922 Z M13.5000003,11.922 C12.6720003,11.922 12.0000003,11.026 12.0000003,9.922 C12.0000003,8.818 12.6720003,7.922 13.5000003,7.922 C14.3280003,7.922 15.0000003,8.818 15.0000003,9.922 C15.0000003,11.026 14.3280003,11.922 13.5000003,11.922 Z" id="Shape"></path>
        </g>
    </g>
</svg>