<?xml version="1.0" encoding="UTF-8"?>
<svg width="24px" height="24px" viewBox="0 0 24 24" version="1.1" xmlns="http://www.w3.org/2000/svg" xmlns:xlink="http://www.w3.org/1999/xlink">
    <title>🥬/ ic_book</title>
    <g id="🥬/-ic_book" stroke="none" stroke-width="1" fill="none" fill-rule="evenodd">
        <g id="ic_book" transform="translate(4.000000, 3.000000)" fill="#000000" fill-rule="nonzero">
            <path d="M15,0 L3,0 C2.20435,0 1.44129,0.31607 0.87868,0.87868 C0.31607,1.44129 0,2.20435 0,3 L0,15 C0,15.7956 0.31607,16.5587 0.87868,17.1213 C1.44129,17.6839 2.20435,18 3,18 L15,18 C15.2652,18 15.5196,17.8946 15.7071,17.7071 C15.8946,17.5196 16,17.2652 16,17 L16,1 C16,0.73478 15.8946,0.48043 15.7071,0.29289 C15.5196,0.10536 15.2652,0 15,0 Z M3,16 C2.73478,16 2.48043,15.8946 2.29289,15.7071 C2.10536,15.5196 2,15.2652 2,15 C2,14.7348 2.10536,14.4804 2.29289,14.2929 C2.48043,14.1054 2.73478,14 3,14 L14,14 L14,16 L3,16 Z" id="Shape"></path>
        </g>
    </g>
</svg>