<svg width="512" height="512" viewBox="0 0 512 512" fill="none" xmlns="http://www.w3.org/2000/svg">
<g clip-path="url(#clip0_2977_102137)">
<path fill-rule="evenodd" clip-rule="evenodd" d="M0 0H512V512H0V0Z" fill="#919EAB" fill-opacity="0.16"/>
<path d="M231 220C224.96 220 220 224.96 220 231V281C220 287.04 224.96 292 231 292H281C287.04 292 292 287.04 292 281V231C292 224.96 287.04 220 281 220H231ZM231 226H281C283.796 226 286 228.204 286 231V281C286 281.265 285.96 281.52 285.922 281.773L261.629 258.27C260.072 256.763 258.035 256.012 256 256.012C253.965 256.012 251.932 256.763 250.375 258.27L226.078 281.773C226.04 281.52 226 281.265 226 281V231C226 228.204 228.204 226 231 226ZM269 234C266.25 234 263.808 235.139 262.258 236.883C260.708 238.626 260 240.833 260 243C260 245.167 260.708 247.374 262.258 249.117C263.808 250.861 266.25 252 269 252C271.75 252 274.192 250.861 275.742 249.117C277.292 247.374 278 245.167 278 243C278 240.833 277.292 238.626 275.742 236.883C274.192 235.139 271.75 234 269 234ZM269 240C270.25 240 270.808 240.361 271.258 240.867C271.708 241.374 272 242.167 272 243C272 243.833 271.708 244.626 271.258 245.133C270.808 245.639 270.25 246 269 246C267.75 246 267.192 245.639 266.742 245.133C266.292 244.626 266 243.833 266 243C266 242.167 266.292 241.374 266.742 240.867C267.192 240.361 267.75 240 269 240ZM256.004 261.977C256.523 261.977 257.04 262.179 257.457 262.582L281.602 285.941C281.402 285.965 281.206 286 281 286H231C230.794 286 230.598 285.965 230.398 285.941L254.547 262.582C254.964 262.179 255.485 261.977 256.004 261.977Z" fill="#919EAB" fill-opacity="0.16"/>
</g>
<defs>
<clipPath id="clip0_2977_102137">
<rect width="512" height="512" fill="white"/>
</clipPath>
</defs>
</svg>
