<?xml version="1.0" encoding="UTF-8"?>
<svg width="24px" height="24px" viewBox="0 0 24 24" version="1.1" xmlns="http://www.w3.org/2000/svg" xmlns:xlink="http://www.w3.org/1999/xlink">
    <title>🥬Icons/ ic_failed</title>
    <g id="🥬Icons/-ic_failed" stroke="none" stroke-width="1" fill="none" fill-rule="evenodd">
        <circle id="Oval" fill="#FFFFFF" cx="12" cy="12" r="5"></circle>
        <g id="#gr" fill="#B72136" fill-rule="nonzero">
            <path d="M12,2 C6.4771525,2 2,6.4771525 2,12 C2,17.5228475 6.4771525,22 12,22 C17.5228475,22 22,17.5228475 22,12 C22,9.3478351 20.9464316,6.80429597 19.0710678,4.92893219 C17.195704,3.0535684 14.6521649,2 12,2 Z M15.1555677,13.5015294 C15.3760064,13.72023 15.5,14.0179344 15.5,14.3284996 C15.5,14.6390648 15.3760064,14.9367693 15.1555677,15.1554699 C14.9369292,15.3759712 14.6393093,15.5 14.3288322,15.5 C14.0183552,15.5 13.7207352,15.3759712 13.5020968,15.1554699 L12,13.641299 L10.4979032,15.1554699 C10.2792648,15.3759712 9.98164482,15.5 9.67116777,15.5 C9.36069073,15.5 9.06307079,15.3759712 8.84443233,15.1554699 C8.62399363,14.9367693 8.5,14.6390648 8.5,14.3284996 C8.5,14.0179344 8.62399363,13.72023 8.84443233,13.5015294 L10.3581733,11.9990061 L8.84443233,10.4964827 C8.38783896,10.0397597 8.38783896,9.29926532 8.84443233,8.84254228 C9.30102571,8.38581924 10.0413098,8.38581924 10.4979032,8.84254228 L12,10.3567131 L13.5020968,8.84254228 C13.9586902,8.38581924 14.6989743,8.38581924 15.1555677,8.84254228 C15.612161,9.29926532 15.612161,10.0397597 15.1555677,10.4964827 L13.6418267,11.9990061 L15.1555677,13.5015294 Z" id="Shape"></path>
        </g>
    </g>
</svg>