<?xml version="1.0" encoding="UTF-8"?>
<svg width="24px" height="24px" viewBox="0 0 24 24" version="1.1" xmlns="http://www.w3.org/2000/svg" xmlns:xlink="http://www.w3.org/1999/xlink">
    <title>icons/dataset/tags/aftersales</title>
    <g id="icons/dataset/tags/aftersales" stroke="none" stroke-width="1" fill="none" fill-rule="evenodd">
        <g id="Group-Copy" transform="translate(4.000000, 3.000000)" fill-rule="nonzero">
            <path d="M10.5623472,18 L10.5623472,15.9755501 L11.7066015,16.195599 C12.9828851,16.4596577 14.1711491,15.5354523 14.2591687,14.2591687 L14.5232274,11.398533 L15.799511,10.8704156 C16.2396088,10.6943765 16.4156479,10.1662592 16.1515892,9.72616137 L14.5232274,6.99755501 C14.2591687,3.65281174 12.3667482,0.39608802 7.48166259,0.39608802 C2.46454768,0.39608802 0,4.09290954 0,7.87775061 C0,9.50611247 0.572127139,10.9144254 1.45232274,12.1026895 C2.24449878,13.202934 2.6405868,14.5232274 2.6405868,15.8435208 L2.6405868,17.9559902 L10.5623472,17.9559902 L10.5623472,18 Z" id="Path" fill="#FFB74D"></path>
            <polygon id="Path" fill="#FF9800" points="10.5623472 18 10.5623472 15.9755501 7.48166259 15.3594132 7.48166259 18"></polygon>
            <circle id="Oval" fill="#784719" cx="12.5427873" cy="8.53789731" r="1"></circle>
            <path d="M7.21760391,0.39608802 C3.21271394,0.39608802 0,3.60880196 0,7.61369193 C0,12.4987775 2.6405868,12.6308068 2.6405868,15.799511 L3.78484108,15.403423 C4.70904645,15.0953545 5.50122249,14.391198 5.85330073,13.4669927 L7.08557457,10.4743276 L9.68215159,9.19804401 L9.68215159,6.55745721 C9.68215159,6.55745721 12.7628362,4.88508557 12.7628362,2.02444988 C11.4425428,0.924205379 9.11002445,0.39608802 7.21760391,0.39608802 Z" id="Path" fill="#FF5722"></path>
            <path d="M7.04156479,-1.66994916e-15 C6.77750611,-1.66994916e-15 6.60146699,0.17603912 6.60146699,0.4400978 L6.60146699,6.55745721 C6.60146699,6.82151589 6.77750611,6.99755501 7.04156479,6.99755501 C7.30562347,6.99755501 7.48166259,6.82151589 7.48166259,6.55745721 L7.48166259,0.4400978 C7.48166259,0.17603912 7.30562347,-1.66994916e-15 7.04156479,-1.66994916e-15 Z M14.0391198,13.1149144 C10.5623472,13.1149144 9.50611247,10.9584352 9.46210269,10.8704156 C9.37408313,10.6503667 9.11002445,10.5623472 8.88997555,10.6503667 C8.66992665,10.7383863 8.58190709,11.002445 8.66992665,11.2224939 C8.71393643,11.3545232 9.99022005,13.99511 14.0391198,13.99511 C14.3031785,13.99511 14.4792176,13.8190709 14.4792176,13.5550122 C14.4792176,13.2909535 14.2591687,13.1149144 14.0391198,13.1149144 L14.0391198,13.1149144 Z" id="Shape" fill="#546E7A"></path>
            <circle id="Oval" fill="#37474F" cx="14.0831296" cy="13.599022" r="1"></circle>
            <circle id="Oval" fill="#37474F" cx="7.04156479" cy="9.19804401" r="3.0806846"></circle>
            <circle id="Oval" fill="#546E7A" cx="7.04156479" cy="9.19804401" r="1.7603912"></circle>
        </g>
    </g>
</svg>