<?xml version="1.0" encoding="UTF-8"?>
<svg width="24px" height="24px" viewBox="0 0 24 24" version="1.1" xmlns="http://www.w3.org/2000/svg" xmlns:xlink="http://www.w3.org/1999/xlink">
    <title>icons/files/ic_tag</title>
    <g id="icons/files/ic_tag" stroke="none" stroke-width="1" fill="none" fill-rule="evenodd">
        <g id="Group" transform="translate(5, 5)" fill="#919EAB" fill-rule="nonzero">
            <path d="M1.03048874,0 C0.461365525,0 0,0.461365525 0,1.03048874 L0,5.75631012 C0,6.02959039 0.108665682,6.29165651 0.301933202,6.48486566 L7.5153544,13.6982869 C7.9177601,14.100571 8.57005978,14.100571 8.97246548,13.6982869 L13.6982869,8.97246548 C14.100571,8.57005978 14.100571,7.9177601 13.6982869,7.5153544 L6.48486566,0.301933202 C6.29165651,0.108665682 6.02959039,0 5.75631012,0 L1.03048874,0 Z M5.15244371,3.6067106 C5.15244371,4.46039543 4.46039543,5.15244371 3.6067106,5.15244371 C2.75302577,5.15244371 2.06097749,4.46039543 2.06097749,3.6067106 C2.06097749,2.75302577 2.75302577,2.06097749 3.6067106,2.06097749 C4.46039543,2.06097749 5.15244371,2.75302577 5.15244371,3.6067106 L5.15244371,3.6067106 Z" id="Shape"></path>
        </g>
    </g>
</svg>