<?xml version="1.0" encoding="UTF-8"?>
<svg width="24px" height="24px" viewBox="0 0 24 24" version="1.1" xmlns="http://www.w3.org/2000/svg" xmlns:xlink="http://www.w3.org/1999/xlink">
    <title>icons/dataset/tags/presales</title>
    <g id="icons/dataset/tags/presales" stroke="none" stroke-width="1" fill="none" fill-rule="evenodd">
        <g id="Group" transform="translate(3.000000, 3.000000)" fill="#B72136" fill-rule="nonzero">
            <path d="M2.30204656,7.74324751 L2.30204656,1.25566176 L15.695772,1.25566176 L15.695772,7.74324751 C15.695772,10.3081459 15.695772,11.5905951 14.8553157,12.3875218 C14.0148594,13.1844485 12.6620932,13.1844485 9.95572353,13.1844485 L8.04209501,13.1844485 C5.33656247,13.1844485 3.9829591,13.1844485 3.14250283,12.3875218 C2.30204656,11.5905951 2.30204656,10.3081459 2.30204656,7.74324751 Z" id="Path" opacity="0.5"></path>
            <path d="M11.9538999,6.51269899 C12.184405,6.26532546 12.1776035,5.87983732 11.9385154,5.64074921 C11.6994273,5.40166111 11.3139392,5.39485962 11.0665656,5.62536468 L9.9841852,6.70774511 L9.83601711,6.85423899 L9.68784902,6.70774511 L9.17721324,6.19710933 C9.05859571,6.07286907 8.93221779,5.95627705 8.7988405,5.84803536 C8.61865157,5.70102231 8.39431478,5.61877532 8.16180143,5.61448228 C7.92928808,5.61877532 7.70495129,5.70102231 7.52476237,5.84803536 C7.39919619,5.94346566 7.26777026,6.07489159 7.14638962,6.19627222 L6.0439186,7.29958036 C5.87595025,7.4560949 5.80680849,7.69181187 5.86361767,7.91425936 C5.92042686,8.13670684 6.09412642,8.31040641 6.31657391,8.36721559 C6.53902139,8.42402478 6.77473837,8.35488301 6.93125291,8.18691467 L8.01363334,7.10453423 L8.16180143,6.95804036 L8.30996952,7.10453423 L8.8206053,7.61517001 C8.94198594,7.73738776 9.07341187,7.86881369 9.19897804,7.96424398 C9.34630902,8.07641643 9.55642309,8.19779707 9.83601711,8.19779707 C10.1156111,8.19779707 10.3257252,8.07641643 10.4730562,7.96424398 C10.5986224,7.86881369 10.7300483,7.73738776 10.8514289,7.61600712 L11.9538999,6.51269899 Z M0.627830879,0 C0.281089459,0 0,0.281089459 0,0.627830879 C0,0.974572299 0.281089459,1.25566176 0.627830879,1.25566176 L17.3699877,1.25566176 C17.7167291,1.25566176 17.9978185,0.974572299 17.9978185,0.627830879 C17.9978185,0.281089459 17.7167291,0 17.3699877,0 L0.627830879,0 Z M8.37107839,13.1844485 L8.37107839,16.1452989 L7.04426247,16.8082883 C6.84176314,16.9074278 6.70797282,17.1075376 6.69374661,17.3325537 C6.6795204,17.5575698 6.78704306,17.772936 6.97544408,17.8967895 C7.16384511,18.020643 7.40419136,18.0339632 7.60512472,17.931687 L8.99890927,17.2352133 L10.3926938,17.931687 C10.5936272,18.0339632 10.8339734,18.020643 11.0223745,17.8967895 C11.2107755,17.772936 11.3182981,17.5575698 11.3040719,17.3325537 C11.2898457,17.1075376 11.1560554,16.9074278 10.9535561,16.8082883 L9.62674015,16.1444618 L9.62674015,13.1844485 L8.37107839,13.1844485 L8.37107839,13.1844485 Z" id="Shape"></path>
        </g>
    </g>
</svg>