<?xml version="1.0" encoding="UTF-8"?>
<svg width="24px" height="24px" viewBox="0 0 24 24" version="1.1" xmlns="http://www.w3.org/2000/svg" xmlns:xlink="http://www.w3.org/1999/xlink">
    <title>icons/files/ic_word</title>
    <g id="icons/files/ic_word" stroke="none" stroke-width="1" fill="none" fill-rule="evenodd">
        <g id="icon" transform="translate(3, 0)">
            <path d="M3.12212,0 L11.15231,0 L17.94991,7.09195438 L17.94991,20.8778344 C17.94991,22.6023344 16.55221,24.0000344 14.82771,24.0000344 L3.12212,24.0000344 C1.39766,24.0000344 0,22.6023344 0,20.8778344 L0,3.12212438 C0,1.39769438 1.39766,0 3.12212,0 L3.12212,0 Z" id="Path" fill="#1C65C5" fill-rule="nonzero"></path>
            <polygon id="Path" fill="#FFFFFF" opacity="0.4" points="11.14261 0 11.14261 7.03369438 17.94981 7.03369438"></polygon>
            <path d="M2.89844,17.1248344 L2.89844,13.1517344 L4.30583,13.1517344 C4.5873,13.1517344 4.84939,13.1938344 5.09204,13.2714344 C5.33469,13.3523344 5.55469,13.4688344 5.75207,13.6241344 C5.94942,13.7794344 6.10474,13.9865344 6.21797,14.2453344 C6.3312,14.5041344 6.38945,14.8018344 6.38945,15.1382344 C6.38945,15.4747344 6.3312,15.7724344 6.21797,16.0312344 C6.10474,16.2900344 5.94942,16.4971344 5.75207,16.6524344 C5.55472,16.8077344 5.33469,16.9241344 5.09204,17.0050344 C4.84939,17.0827344 4.58733,17.1248344 4.30583,17.1248344 L2.89844,17.1248344 Z M3.8917,16.2609344 L4.18611,16.2609344 C4.34465,16.2609344 4.49348,16.2415344 4.62611,16.2059344 C4.762,16.1671344 4.88493,16.1056344 5.0014,16.0247344 C5.11788,15.9438344 5.20845,15.8274344 5.27317,15.6753344 C5.34112,15.5265344 5.37345,15.3453344 5.37345,15.1382344 C5.37345,14.9312344 5.34109,14.7500344 5.27317,14.5979344 C5.20845,14.4491344 5.11788,14.3326344 5.0014,14.2517344 C4.88493,14.1676344 4.762,14.1094344 4.62611,14.0706344 C4.49348,14.0350344 4.34465,14.0156344 4.18611,14.0156344 L3.8917,14.0156344 L3.8917,16.2609344 Z M8.79981,17.1701344 C8.20121,17.1701344 7.70621,16.9759344 7.31471,16.5909344 C6.92327,16.2059344 6.72914,15.7206344 6.72914,15.1383344 C6.72914,14.5559344 6.92327,14.0706344 7.31471,13.6856344 C7.70621,13.3006344 8.20121,13.1065344 8.79981,13.1065344 C9.38861,13.1065344 9.87711,13.3006344 10.26861,13.6856344 C10.65691,14.0706344 10.85101,14.5559344 10.85101,15.1383344 C10.85101,15.7206344 10.65691,16.2059344 10.26861,16.5909344 C9.87711,16.9759344 9.38861,17.1701344 8.79981,17.1701344 Z M8.03621,15.9762344 C8.23361,16.1962344 8.48591,16.3062344 8.79331,16.3062344 C9.10061,16.3062344 9.34981,16.1962344 9.54711,15.9762344 C9.74451,15.7530344 9.84151,15.4747344 9.84151,15.1382344 C9.84151,14.8018344 9.74451,14.5235344 9.54711,14.3003344 C9.34981,14.0803344 9.10061,13.9702344 8.79331,13.9702344 C8.48591,13.9702344 8.23361,14.0803344 8.03621,14.3003344 C7.83891,14.5235344 7.73861,14.8018344 7.73861,15.1382344 C7.73861,15.4747344 7.83891,15.7530344 8.03621,15.9762344 Z M13.21281,17.1701344 C12.63371,17.1701344 12.15161,16.9889344 11.76981,16.6330344 C11.38481,16.2739344 11.19401,15.7756344 11.19401,15.1382344 C11.19401,14.5041344 11.38811,14.0058344 11.77631,13.6467344 C12.16781,13.2876344 12.64341,13.1064344 13.21281,13.1064344 C13.72731,13.1064344 14.14781,13.2326344 14.48111,13.4882344 C14.81111,13.7405344 15.00201,14.0770344 15.05051,14.4976344 L14.04761,14.7015344 C14.00551,14.4814344 13.90521,14.3035344 13.74991,14.1708344 C13.59461,14.0382344 13.41341,13.9702344 13.20641,13.9702344 C12.92161,13.9702344 12.68541,14.0706344 12.49461,14.2744344 C12.30371,14.4814344 12.20661,14.7661344 12.20661,15.1382344 C12.20661,15.5103344 12.30371,15.7950344 12.49131,15.9988344 C12.68221,16.2059344 12.91841,16.3062344 13.20631,16.3062344 C13.41341,16.3062344 13.59131,16.2480344 13.73691,16.1315344 C13.88251,16.0150344 13.97311,15.8597344 14.01191,15.6656344 L15.03761,15.8985344 C14.94371,16.2997344 14.73661,16.6103344 14.41311,16.8336344 C14.09281,17.0568344 13.69171,17.1701344 13.21281,17.1701344 Z" id="Shape" fill="#FFFFFF" fill-rule="nonzero"></path>
        </g>
    </g>
</svg>