<?xml version="1.0" encoding="UTF-8"?>
<svg width="24px" height="24px" viewBox="0 0 24 24" version="1.1" xmlns="http://www.w3.org/2000/svg" xmlns:xlink="http://www.w3.org/1999/xlink">
    <title>icons/dataset/tags/factory</title>
    <g id="icons/dataset/tags/factory" stroke="none" stroke-width="1" fill="none" fill-rule="evenodd">
        <g id="Group" transform="translate(3.000000, 3.000000)" fill-rule="nonzero">
            <path d="M1.92857143,12.1371429 C1.92857143,12.1885714 1.935,12.2142857 1.94785714,12.2142857 L3.83785714,12.2142857 C3.85071429,12.2142857 3.85714286,12.1885714 3.85714286,12.1371429 L3.85714286,9.64285714 L3.53571429,8.67857143 L3.85714286,7.71428571 L3.85714286,5.78571429 L3.53571429,4.82142857 L3.85714286,3.85714286 L3.85714286,1.92857143 L2.89285714,1.60714286 L1.92857143,1.92857143 L1.92857143,3.85714286 L2.25,4.82142857 L1.92857143,5.78571429 L1.92857143,7.71428571 L2.25,8.67857143 L1.92857143,9.64285714 L1.92857143,12.1371429 Z M6.42857143,12.1371429 C6.42857143,12.1885714 6.435,12.2142857 6.44785714,12.2142857 L8.33785714,12.2142857 C8.35071429,12.2142857 8.35714286,12.1885714 8.35714286,12.1371429 L8.35714286,9.64285714 L8.03571429,8.67857143 L8.35714286,7.71428571 L8.35714286,5.78571429 L8.03571429,4.82142857 L8.35714286,3.85714286 L8.35714286,1.92857143 L7.39285714,1.60714286 L6.42857143,1.92857143 L6.42857143,3.85714286 L6.75,4.82142857 L6.42857143,5.78571429 L6.42857143,12.1371429 L6.42857143,12.1371429 Z M10.1995714,18 L18,18 L18,7.155 C18,6.75 17.6715,6.42856886 17.2716429,6.42856886 L11.0140714,6.42856886 C10.8210767,6.42805905 10.6358109,6.50436702 10.4991617,6.64065437 C10.3625125,6.77694173 10.2857136,6.96200455 10.2857143,7.155 L10.2857143,9.64285714 L10.1995714,9.78235714 L10.1995714,18 Z" id="Shape" fill="#D3D3D3"></path>
            <path d="M0.135,12.1564286 L4.7925,9.82285714 C4.95321429,9.74571429 5.13964286,9.86142857 5.13964286,10.035 L5.13964286,11.8285714 C5.13964286,12.0085714 5.32607143,12.1242857 5.48678571,12.0407143 L10.2857143,9.64285714 L10.2857143,18 L8.97878571,18 L7.38964286,17.0119286 L5.8005,18 L4.46142857,18 L2.85364286,17.0119286 L1.24521429,18 L0,18 L0,12.3621429 C0,12.2785714 0.0514285714,12.195 0.135,12.1564286 Z" id="Path" fill="#9B9B9B"></path>
            <path d="M11.5714286,8.03571429 C11.5714286,7.85819419 11.715337,7.71428571 11.8928571,7.71428571 L12.5357143,7.71428571 C12.7132344,7.71428571 12.8571429,7.85819419 12.8571429,8.03571429 L12.8571429,8.67857143 C12.8571429,8.85609153 12.7132344,9 12.5357143,9 L11.8928571,9 C11.715337,9 11.5714286,8.85609153 11.5714286,8.67857143 L11.5714286,8.03571429 Z M11.5714286,9.96428571 C11.5714286,9.78676562 11.715337,9.64285714 11.8928571,9.64285714 L12.5357143,9.64285714 C12.7132344,9.64285714 12.8571429,9.78676562 12.8571429,9.96428571 L12.8571429,10.6071429 C12.8571429,10.784663 12.7132344,10.9285714 12.5357143,10.9285714 L11.8928571,10.9285714 C11.715337,10.9285714 11.5714286,10.784663 11.5714286,10.6071429 L11.5714286,9.96428571 Z M11.5714286,11.8928571 C11.5714286,11.715337 11.715337,11.5714286 11.8928571,11.5714286 L12.5357143,11.5714286 C12.7132344,11.5714286 12.8571429,11.715337 12.8571429,11.8928571 L12.8571429,12.5357143 C12.8571429,12.7132344 12.7132344,12.8571429 12.5357143,12.8571429 L11.8928571,12.8571429 C11.715337,12.8571429 11.5714286,12.7132344 11.5714286,12.5357143 L11.5714286,11.8928571 Z M13.5,8.03571429 C13.5,7.85819419 13.6439085,7.71428571 13.8214286,7.71428571 L14.4642857,7.71428571 C14.6418058,7.71428571 14.7857143,7.85819419 14.7857143,8.03571429 L14.7857143,8.67857143 C14.7857143,8.85609153 14.6418058,9 14.4642857,9 L13.8214286,9 C13.6439085,9 13.5,8.85609153 13.5,8.67857143 L13.5,8.03571429 Z M13.5,9.96428571 C13.5,9.78676562 13.6439085,9.64285714 13.8214286,9.64285714 L14.4642857,9.64285714 C14.6418058,9.64285714 14.7857143,9.78676562 14.7857143,9.96428571 L14.7857143,10.6071429 C14.7857143,10.784663 14.6418058,10.9285714 14.4642857,10.9285714 L13.8214286,10.9285714 C13.6439085,10.9285714 13.5,10.784663 13.5,10.6071429 L13.5,9.96428571 Z M13.5,11.8928571 C13.5,11.715337 13.6439085,11.5714286 13.8214286,11.5714286 L14.4642857,11.5714286 C14.6418058,11.5714286 14.7857143,11.715337 14.7857143,11.8928571 L14.7857143,12.5357143 C14.7857143,12.7132344 14.6418058,12.8571429 14.4642857,12.8571429 L13.8214286,12.8571429 C13.6439085,12.8571429 13.5,12.7132344 13.5,12.5357143 L13.5,11.8928571 Z M15.4285714,8.03571429 C15.4285714,7.85819419 15.5724799,7.71428571 15.75,7.71428571 L16.3928571,7.71428571 C16.5703772,7.71428571 16.7142857,7.85819419 16.7142857,8.03571429 L16.7142857,8.67857143 C16.7142857,8.85609153 16.5703772,9 16.3928571,9 L15.75,9 C15.5724799,9 15.4285714,8.85609153 15.4285714,8.67857143 L15.4285714,8.03571429 Z M15.4285714,9.96428571 C15.4285714,9.78676562 15.5724799,9.64285714 15.75,9.64285714 L16.3928571,9.64285714 C16.5703772,9.64285714 16.7142857,9.78676562 16.7142857,9.96428571 L16.7142857,10.6071429 C16.7142857,10.784663 16.5703772,10.9285714 16.3928571,10.9285714 L15.75,10.9285714 C15.5724799,10.9285714 15.4285714,10.784663 15.4285714,10.6071429 L15.4285714,9.96428571 Z M15.4285714,11.8928571 C15.4285714,11.715337 15.5724799,11.5714286 15.75,11.5714286 L16.3928571,11.5714286 C16.5703772,11.5714286 16.7142857,11.715337 16.7142857,11.8928571 L16.7142857,12.5357143 C16.7142857,12.7132344 16.5703772,12.8571429 16.3928571,12.8571429 L15.75,12.8571429 C15.5724799,12.8571429 15.4285714,12.7132344 15.4285714,12.5357143 L15.4285714,11.8928571 Z" id="Shape" fill="#83CBFF"></path>
            <path d="M12.2142857,18 L16.0714286,18 L16.0714286,15.6619286 C16.0714286,15.5333571 15.9621429,15.4285714 15.8265,15.4285714 L12.4585714,15.4285714 C12.3951416,15.4270183 12.3336944,15.4507358 12.2877573,15.4945026 C12.2418202,15.5382695 12.2151589,15.5984978 12.2136429,15.6619286 L12.2136429,18 L12.2142857,18 Z M4.5,18 L1.28571429,18 L1.28571429,16.3157143 C1.28571429,16.1807143 1.395,16.0714286 1.53,16.0714286 L4.25571429,16.0714286 C4.39071429,16.0714286 4.5,16.1807143 4.5,16.3157143 L4.5,18 L4.5,18 Z M9,18 L5.78571429,18 L5.78571429,16.3157143 C5.78571429,16.1807143 5.895,16.0714286 6.03,16.0714286 L8.75571429,16.0714286 C8.89071429,16.0714286 9,16.1807143 9,16.3157143 L9,18 Z" id="Shape" fill="#1C1C1C"></path>
            <path d="M3.85714286,0.327857143 C3.85714286,0.147857143 3.70928571,1.11022302e-16 3.52928571,1.11022302e-16 L2.25642857,1.11022302e-16 C2.07642857,1.11022302e-16 1.92857143,0.147857143 1.92857143,0.327857143 L1.92857143,1.92857143 L3.85714286,1.92857143 L3.85714286,0.327857143 Z M3.85714286,7.71428571 L1.92857143,7.71428571 L1.92857143,9.64285714 L3.85714286,9.64285714 L3.85714286,7.71428571 Z M1.92857143,3.85714286 L3.85714286,3.85714286 L3.85714286,5.78571429 L1.92857143,5.78571429 L1.92857143,3.85714286 Z M8.35714286,0.327857143 C8.35714286,0.147857143 8.20928571,0 8.02928571,0 L6.75642857,0 C6.57642857,0 6.42857143,0.147857143 6.42857143,0.327857143 L6.42857143,1.92857143 L8.35714286,1.92857143 L8.35714286,0.327857143 Z M8.35714286,3.85714286 L6.42857143,3.85714286 L6.42857143,5.78571429 L8.35714286,5.78571429 L8.35714286,3.85714286 Z M6.42857143,7.71428571 L8.35714286,7.71428571 L8.35714286,9.64285714 L6.42857143,9.64285714 L6.42857143,7.71428571 Z" id="Shape" fill="#F8312F"></path>
        </g>
    </g>
</svg>