<?xml version="1.0" encoding="UTF-8"?>
<svg width="24px" height="24px" viewBox="0 0 24 24" version="1.1" xmlns="http://www.w3.org/2000/svg" xmlns:xlink="http://www.w3.org/1999/xlink">
    <title>icons/dataset/tags/hr support</title>
    <g id="icons/dataset/tags/hr-support" stroke="none" stroke-width="1" fill="none" fill-rule="evenodd">
        <g id="Group" transform="translate(4.000000, 3.000000)" fill="#007CC8" fill-rule="nonzero">
            <path d="M8.1,18 L7.875,15.3 L7.65,15.3 C5.52,15.3 3.7125,14.5575 2.2275,13.0725 C0.7425,11.5875 0,9.78 0,7.65 C0,5.52 0.7425,3.7125 2.2275,2.2275 C3.7125,0.7425 5.52,0 7.65,0 C8.715,0 9.7089,0.1986 10.6317,0.5958 C11.5545,0.993 12.3645,1.5405 13.0617,2.2383 C13.7589,2.9361 14.3061,3.7461 14.7033,4.6683 C15.1005,5.5905 15.2994,6.5844 15.3,7.65 C15.3,8.775 15.1161,9.855 14.7483,10.89 C14.3805,11.925 13.878,12.885 13.2408,13.77 C12.6036,14.655 11.8461,15.4575 10.9683,16.1775 C10.0905,16.8975 9.1344,17.505 8.1,18 Z M7.6275,12.5775 C7.8825,12.5775 8.1,12.4875 8.28,12.3075 C8.46,12.1275 8.55,11.91 8.55,11.655 C8.55,11.4 8.46,11.1825 8.28,11.0025 C8.1,10.8225 7.8825,10.7325 7.6275,10.7325 C7.3725,10.7325 7.155,10.8225 6.975,11.0025 C6.795,11.1825 6.705,11.4 6.705,11.655 C6.705,11.91 6.795,12.1275 6.975,12.3075 C7.155,12.4875 7.3725,12.5775 7.6275,12.5775 Z M6.975,9.72 L8.325,9.72 C8.325,9.27 8.37,8.955 8.46,8.775 C8.55,8.595 8.835,8.265 9.315,7.785 C9.585,7.515 9.81,7.2225 9.99,6.9075 C10.17,6.5925 10.26,6.255 10.26,5.895 C10.26,5.13 10.0011,4.5561 9.4833,4.1733 C8.9655,3.7905 8.3544,3.5994 7.65,3.59999859 C6.99,3.59999859 6.435,3.7839 5.985,4.1517 C5.535,4.5195 5.22,4.9656 5.04,5.49 L6.3,5.985 C6.375,5.73 6.5175,5.4786 6.7275,5.2308 C6.9375,4.983 7.245,4.8594 7.65,4.86 C8.055,4.86 8.3586,4.9725 8.5608,5.1975 C8.763,5.4225 8.8644,5.67 8.865,5.94 C8.865,6.195 8.79,6.4239 8.64,6.6267 C8.49,6.8295 8.31,7.0356 8.1,7.245 C7.575,7.695 7.2561,8.0514 7.1433,8.3142 C7.0305,8.577 6.9744,9.0456 6.975,9.72 Z" id="Shape"></path>
        </g>
    </g>
</svg>