<?xml version="1.0" encoding="UTF-8"?>
<svg width="24px" height="24px" viewBox="0 0 24 24" version="1.1" xmlns="http://www.w3.org/2000/svg" xmlns:xlink="http://www.w3.org/1999/xlink">
    <title>icons/files/ic_money</title>
    <g id="icons/files/ic_money" stroke="none" stroke-width="1" fill="none" fill-rule="evenodd">
        <g id="Group" transform="translate(4, 3)">
            <path d="M12.3937236,5.31791847 C13.3944587,5.09441777 14.6979497,4.09541463 14.8963071,3.60341308 C15.0126369,3.31541217 14.432479,2.86541075 14.2773726,2.68391018 C13.9224173,2.26990888 14.0655925,2.06590824 14.2028021,1.57240668 C14.3594,1.01140492 13.9880393,0.391902968 13.4615721,0.148902203 C12.9351049,-0.0940985623 12.3057305,-0.0175983215 11.7762805,0.219402425 C11.2468305,0.456403171 10.7949337,0.83740437 10.3519854,1.21240555 C10.0283498,1.0069049 9.51232242,0.0994020468 8.67713367,0.688903903 C8.09995858,1.09540518 8.04775928,1.98040797 8.12232971,2.68691019 C8.2968245,4.31741532 8.69652198,5.16341799 9.44968327,5.39141871 C10.4012019,5.67941961 11.4541363,5.52791914 12.3937236,5.31791847 Z" id="Path" fill="#FFCA28" fill-rule="nonzero"></path>
            <path d="M14.0193589,0.627403709 C13.8925892,2.82491063 11.7613664,4.28291522 10.7501915,4.92491724 L11.4064112,5.49191902 C11.4064112,5.49191902 11.8225142,5.50091905 12.3922322,5.31791847 C13.3691048,5.00591749 14.7963827,4.12391472 14.8948157,3.60341308 C15.0394823,2.84591069 14.2669327,3.01091121 14.0924379,2.41240933 C14.001462,2.09590833 14.5353862,1.49740645 14.0193589,0.627403709 L14.0193589,0.627403709 Z M10.3534768,1.21390556 C10.3534768,1.21390556 9.97316765,0.822404323 9.69129144,0.643903761 C9.55109904,0.909404597 9.45117467,1.1974055 9.40195819,1.49440644 C9.31396509,2.01640808 9.40195819,2.75741041 9.60926397,3.30941215 C9.64207496,3.39491242 9.76437046,3.38141238 9.77779313,3.2914121 C9.95676215,2.10490836 10.3534768,1.21390556 10.3534768,1.21390556 Z" id="Shape" fill="#E2A610" fill-rule="nonzero"></path>
            <path d="M7.69578688,5.12441787 C7.69578688,5.12441787 3.04408379,5.62991946 0.945672046,9.69193224 C-1.1527397,13.753945 0.630984854,16.2169528 2.519108,17.1139556 C4.40723116,18.0109584 9.16482424,18.3274594 12.2594969,17.5894571 C15.3541695,16.8514548 16.1282105,15.32145 15.9835439,13.8439453 C15.7732553,11.6869385 13.7807335,10.3609343 13.7807335,10.3609343 C13.7807335,10.3609343 13.8597782,7.69692596 11.8046173,5.96742052 C9.98062469,4.43141568 7.69578688,5.12441787 7.69578688,5.12441787 Z" id="Path" fill="#FFCA28" fill-rule="nonzero"></path>
            <path d="M9.60478975,11.9599394 C8.60703747,10.6939354 7.42882476,10.5244349 7.05149841,10.0699334 C6.84568404,9.82243265 6.72487995,9.57193187 6.77111361,9.26143089 C6.82033009,8.93142985 7.20063926,8.70342913 7.49593814,8.64792896 C7.8404535,8.58192875 8.66221958,8.61642886 9.35274171,9.27793094 C9.51679665,9.43393143 9.45714031,9.6769322 9.45266608,9.89443288 C9.44073481,10.3609343 10.1044116,10.8139358 10.6413187,10.4239345 C11.1797171,10.0324333 10.766597,9.16093057 10.4190988,8.73792924 C10.1566109,8.41842823 9.20509227,7.71492602 8.02240534,7.60392567 C7.68982125,7.57242557 6.35202783,7.37292494 5.57947823,8.85042959 C5.35725836,9.27493093 5.2752309,10.3009342 6.43852952,11.1679369 C6.6816291,11.3494375 7.94336069,11.9944395 8.29384168,12.4129408 C8.90084494,13.1374431 8.48474197,13.7749451 8.01047407,13.8589454 C6.71742291,14.0869461 5.98514134,13.3834439 5.84942317,12.9979427 C5.75248161,12.7234418 5.85389739,12.4264409 5.72861908,12.16844 C5.60035795,11.9029392 5.33787005,11.7979389 5.06046807,11.8864392 C4.15070889,12.1774401 4.44004214,13.1779432 4.84272243,13.728445 C5.27373949,14.3179468 5.8031895,14.6734479 6.39826149,14.8684485 C8.61896874,15.5959508 9.68681722,14.4469472 9.87324328,13.6054446 C10.0104529,12.9889426 9.99553877,12.4549409 9.60478975,11.9599394 Z" id="Path" fill="#6B4B46" fill-rule="nonzero"></path>
            <path d="M9.06788269,6.74892298 C7.17826813,10.8079358 6.85314108,15.9334519 6.85314108,15.9334519" id="Path" stroke="#6B4B46" stroke-width="0.750002361"></path>
            <path d="M10.635353,4.19441494 C11.8941018,4.60691624 12.1729952,5.75141984 12.0820193,6.06342082 C11.9731464,6.42942197 10.5786795,5.00441749 8.50562169,5.08991776 C7.78079716,5.11991785 7.99108576,4.67291644 8.32665267,4.41491563 C8.76960099,4.07441456 9.51381383,3.82841379 10.635353,4.19441494 Z" id="Path" fill="#6D4C41" fill-rule="nonzero"></path>
            <path d="M10.635353,4.19441494 C11.8941018,4.60691624 12.1729952,5.75141984 12.0820193,6.06342082 C11.9731464,6.42942197 10.5786795,5.00441749 8.50562169,5.08991776 C7.78079716,5.11991785 7.99108576,4.67291644 8.32665267,4.41491563 C8.76960099,4.07441456 9.51381383,3.82841379 10.635353,4.19441494 Z" id="Path" fill="#6B4B46" fill-rule="nonzero"></path>
            <path d="M12.8456204,8.22942764 C13.0037097,8.11992729 13.5346511,8.30892789 13.683792,9.35443118 C13.756871,9.86593279 13.7792421,10.3609343 13.7792421,10.3609343 C13.7792421,10.3609343 13.1528506,9.79543257 12.9455448,9.39793132 C12.6845483,8.89542974 12.5831325,8.40942821 12.8456204,8.22942764 L12.8456204,8.22942764 Z" id="Path" fill="#E2A610" fill-rule="nonzero"></path>
        </g>
    </g>
</svg>