<?xml version="1.0" encoding="UTF-8"?>
<svg width="24px" height="24px" viewBox="0 0 24 24" version="1.1" xmlns="http://www.w3.org/2000/svg" xmlns:xlink="http://www.w3.org/1999/xlink">
    <title>icons/dataset/tags/itsupport</title>
    <g id="icons/dataset/tags/itsupport" stroke="none" stroke-width="1" fill="none" fill-rule="evenodd">
        <g id="Group" transform="translate(3.000000, 3.000000)" fill="#607D8B" fill-rule="nonzero">
            <path d="M17.7887173,3.54751935 L14.0675303,7.22593409 C14.0675303,7.22593409 12.9554514,7.22593409 11.8433725,6.11385522 C10.7312936,5.00177634 10.7312936,3.88969746 10.7312936,3.88969746 L14.4524807,0.16851045 C12.3566397,-0.344756724 9.83307609,0.339599508 8.29327456,1.87940103 C5.98357228,4.18910331 8.03664098,7.14038957 7.43782927,7.73920127 C4.18713717,11.1182102 0.850900539,13.684546 0.76535601,13.8128628 C-0.218406074,14.7966249 -0.261178338,16.3791987 0.679811481,17.3201885 C1.6208013,18.2611783 3.20337509,18.2184061 4.18713717,17.234644 C4.31545396,17.1063272 7.05287889,13.6417738 10.2607987,10.4338539 C10.8596104,9.83504223 13.6825799,12.0164277 16.0778267,9.66395317 C17.574856,8.12415165 18.3019845,5.64336031 17.7887173,3.54751935 L17.7887173,3.54751935 Z M2.69010791,16.421971 C2.09129621,16.421971 1.6208013,15.9514761 1.6208013,15.3526644 C1.6208013,14.7110804 2.09129621,14.2405855 2.69010791,14.2405855 C3.28891962,14.2405855 3.75941453,14.7110804 3.75941453,15.3098921 C3.75941453,15.9087038 3.28891962,16.421971 2.69010791,16.421971 Z" id="Shape"></path>
        </g>
    </g>
</svg>