<?xml version="1.0" encoding="UTF-8"?>
<svg width="24px" height="24px" viewBox="0 0 24 24" version="1.1" xmlns="http://www.w3.org/2000/svg" xmlns:xlink="http://www.w3.org/1999/xlink">
    <title>icons/dataset/tags/supplychain</title>
    <g id="icons/dataset/tags/supplychain" stroke="none" stroke-width="1" fill="none" fill-rule="evenodd">
        <g id="Group" transform="translate(5.000000, 3.000000)" fill-rule="nonzero">
            <path d="M2.901,14.214 C1.302,14.214 0.0015,15.5145 0.0015,17.1135 L0.0015,17.9985 L1.572,17.9985 L1.572,17.1135 C1.572,16.38 2.1675,15.7845 2.901,15.7845 C3.6345,15.7845 4.23,16.38 4.23,17.1135 L4.23,17.9985 L5.8005,17.9985 L5.8005,17.1135 C5.8005,15.516 4.5,14.214 2.901,14.214 Z M2.901,5.226 C1.302,5.226 0.0015,6.5265 0.0015,8.1255 L0.0015,9.873 C0.0015,11.472 1.302,12.7725 2.901,12.7725 C4.5,12.7725 5.8005,11.472 5.8005,9.873 L5.8005,8.127 C5.8005,6.528 4.5,5.226 2.901,5.226 Z M4.2285,9.873 C4.2285,10.6065 3.633,11.202 2.8995,11.202 C2.166,11.202 1.5705,10.6065 1.5705,9.873 L1.5705,8.127 C1.5705,7.3935 2.166,6.798 2.8995,6.798 C3.633,6.798 4.2285,7.3935 4.2285,8.127 L4.2285,9.873 L4.2285,9.873 Z M2.901,3.786 C4.5,3.786 5.8005,2.4855 5.8005,0.8865 L5.8005,1.0658141e-15 L4.2285,1.0658141e-15 L4.2285,0.8865 C4.2285,1.6185 3.633,2.2155 2.8995,2.2155 C2.166,2.2155 1.5705,1.62 1.5705,0.8865 L1.5705,1.0658141e-15 L0,1.0658141e-15 L0,0.8865 C0,2.484 1.302,3.786 2.901,3.786 L2.901,3.786 Z M11.289,9.72 C9.69,9.72 8.3895,11.0205 8.3895,12.6195 L8.3895,14.367 C8.3895,15.966 9.69,17.2665 11.289,17.2665 C12.888,17.2665 14.1885013,15.966 14.1885013,14.367 L14.1885013,12.621 C14.19,11.022 12.888,9.72 11.289,9.72 Z M12.618,14.367 C12.618,15.099 12.0225,15.696 11.289,15.696 C10.5555,15.696 9.96,15.1005 9.96,14.367 L9.96,12.621 C9.96,11.8875 10.5555,11.292 11.289,11.292 C12.021,11.292 12.618,11.8875 12.618,12.621 L12.618,14.367 Z M11.289,0.732 C9.69,0.732 8.3895,2.0325 8.3895,3.6315 L8.3895,5.379 C8.3895,6.978 9.69,8.2785 11.289,8.2785 C12.888,8.2785 14.1885013,6.978 14.1885013,5.379 L14.1885013,3.633 C14.19,2.034 12.888,0.732 11.289,0.732 Z M12.618,5.379 C12.618,6.1125 12.0225,6.708 11.289,6.708 C10.5555,6.708 9.96,6.1125 9.96,5.379 L9.96,3.633 C9.96,2.901 10.5555,2.304 11.289,2.304 C12.021,2.304 12.618,2.8995 12.618,3.633 L12.618,5.379 Z" id="Shape" fill="#84B0C1"></path>
            <path d="M2.898,12.774 C2.4645,12.774 2.055,12.675 1.6845,12.504 C1.7175,11.937 1.8225,11.373 1.9455,10.8165 C1.947,10.812 1.9485,10.806 1.9485,10.8015 C2.19778279,11.0579589 2.54035091,11.2024545 2.898,11.202 C3.3,11.202 3.6585,11.022 3.903,10.74 L3.9165,10.8075 C3.9585,11.031 4.005,11.256 4.104,11.4585 C4.2045,11.6625 4.3665,11.844 4.581,11.9205 C4.6935,11.961 4.821,11.964 4.9365,11.9325 C4.413,12.4515 3.693,12.774 2.898,12.774 L2.898,12.774 Z M2.898,3.78600206 C2.4645,3.78600206 2.055,3.687 1.6845,3.516 C1.7175,2.949 1.8225,2.385 1.9455,1.8285 C1.947,1.824 1.9485,1.818 1.9485,1.8135 C2.19778279,2.0699589 2.54035091,2.21445446 2.898,2.214 C3.3,2.214 3.6585,2.034 3.903,1.752 L3.9165,1.8195 C3.9585,2.043 4.005,2.268 4.104,2.4705 C4.2045,2.6745 4.3665,2.856 4.581,2.9325 C4.6935,2.973 4.821,2.976 4.9365,2.9445 C4.39547125,3.48421795 3.66220333,3.78691353 2.898,3.78600206 L2.898,3.78600206 Z M4.7175,5.871 C4.578,5.901 4.443,5.9775 4.347,6.084 C4.155,6.297 4.086,6.591 4.0515,6.8745 C4.0305,7.0395 4.0185,7.206 3.9915,7.371 C3.74374049,7.01219872 3.33553112,6.79800095 2.8995,6.798 C2.5052745,6.79794458 2.13146539,6.97330503 1.8795,7.2765 C1.818,6.696 1.782,6.1125 1.776,5.529 L1.776,5.454 C2.121,5.3085 2.5005,5.2274931 2.8995,5.2274931 C3.5865,5.226 4.2195,5.469 4.7175,5.871 L4.7175,5.871 Z M11.292,8.28 C10.8585,8.28 10.449,8.181 10.0785,8.01 C10.1115,7.443 10.2165,6.879 10.3395,6.3225 C10.341,6.318 10.3425,6.312 10.3425,6.3075 C10.5917828,6.5639589 10.9343509,6.70845446 11.292,6.708 C11.694,6.708 12.0525,6.528 12.297,6.246 L12.3105,6.3135 C12.3525,6.537 12.399,6.762 12.498,6.9645 C12.5985,7.1685 12.7605,7.35 12.975,7.4265 C13.0875,7.467 13.215,7.47 13.3305,7.4385 C12.807,7.9575 12.087,8.28 11.292,8.28 Z M13.1115,1.377 C12.972,1.407 12.837,1.4835 12.741,1.59 C12.549,1.803 12.48,2.097 12.4455,2.3805 C12.4245,2.5455 12.4125,2.712 12.3855,2.877 C12.1377405,2.51819872 11.7295311,2.30400095 11.2935,2.304 C10.8992745,2.30394458 10.5254654,2.47930503 10.2735,2.7825 C10.212,2.202 10.176,1.6185 10.17,1.035 L10.17,0.96 C10.515,0.8145 10.8945,0.733493096 11.2935,0.733493096 C11.9805,0.732 12.6135,0.975 13.1115,1.377 L13.1115,1.377 Z M11.292,17.2665021 C10.8585,17.2665021 10.449,17.1675 10.0785,16.9965 C10.1115,16.4295 10.2165,15.8655 10.3395,15.309 C10.341,15.3045 10.3425,15.2985 10.3425,15.294 C10.5917828,15.5504589 10.9343509,15.6949545 11.292,15.6945 C11.694,15.6945 12.0525,15.5145 12.297,15.2325 L12.3105,15.3 C12.3525,15.5235 12.399,15.7485 12.498,15.951 C12.5985,16.155 12.7605,16.3365 12.975,16.413 C13.0875,16.4535 13.215,16.4565 13.3305,16.425 C12.7894713,16.9647179 12.0562033,17.2674135 11.292,17.2665021 L11.292,17.2665021 Z M13.1115,10.365 C12.972,10.395 12.837,10.4715 12.741,10.578 C12.549,10.791 12.48,11.085 12.4455,11.3685 C12.4245,11.5335 12.4125,11.7 12.3855,11.865 C12.1377405,11.5061987 11.7295311,11.2920009 11.2935,11.292 C10.8992745,11.2919446 10.5254654,11.467305 10.2735,11.7705 C10.212,11.19 10.176,10.6065 10.17,10.023 L10.17,9.948 C10.515,9.8025 10.8945,9.7214931 11.2935,9.7214931 C11.9805,9.72 12.6135,9.963 13.1115,10.365 Z" id="Shape" fill="#2F7889"></path>
            <path d="M11.289,5.5875 C10.8555,5.5875 10.503,5.94 10.503,6.3735 L10.503,11.6265 C10.503,12.06 10.8555,12.4125 11.289,12.4125 C11.7225,12.4125 12.075,12.06 12.075,11.6265 L12.075,6.3735 C12.075,5.94 11.7225,5.5875 11.289,5.5875 Z M11.289,3.4245 C11.7225,3.4245 12.075,3.072 12.075,2.6385 L12.075,1.11022302e-15 L10.5045,1.11022302e-15 L10.5045,2.6385 C10.5045,3.072 10.857,3.4245 11.289,3.4245 L11.289,3.4245 Z M11.289,14.5755 C10.8555,14.5755 10.503,14.928 10.503,15.3615 L10.503,18 L12.075,18 L12.075,15.3615 C12.075,14.928 11.7225,14.5755 11.289,14.5755 L11.289,14.5755 Z M2.961,10.1445 C2.5275,10.1445 2.175,10.497 2.175,10.9305 L2.175,16.1835 C2.175,16.617 2.5275,16.9695 2.961,16.9695 C3.3945,16.9695 3.747,16.617 3.747,16.1835 L3.747,10.9305 C3.747,10.497 3.3945,10.1445 2.961,10.1445 L2.961,10.1445 Z M2.961,1.1565 C2.5275,1.1565 2.175,1.509 2.175,1.9425 L2.175,7.1955 C2.175,7.629 2.5275,7.9815 2.961,7.9815 C3.3945,7.9815 3.747,7.629 3.747,7.1955 L3.747,1.9425 C3.747,1.509 3.3945,1.1565 2.961,1.1565 Z" id="Shape" fill="#84B0C1"></path>
            <path d="M2.523,2.0715 C2.442,2.5815 2.4195,3.102 2.5125,3.609 C2.553,3.8325 2.7075,4.0095 2.853,3.717 C3.1125,3.1995 3.3375,2.5215 3.3465,1.929 C3.3495,1.7115 3.249,1.4775 2.9985,1.4805 C2.6955,1.4865 2.568,1.791 2.523,2.0715 Z M2.523,10.974 C2.442,11.484 2.4195,12.0045 2.5125,12.5115 C2.553,12.735 2.7075,12.912 2.853,12.6195 C3.1125,12.102 3.3375,11.424 3.3465,10.8315 C3.3495,10.614 3.249,10.38 2.9985,10.383 C2.6955,10.389 2.568,10.695 2.523,10.974 Z M10.815,6.5235 C10.734,7.0335 10.7115,7.554 10.8045,8.061 C10.845,8.2845 10.9995,8.4615 11.145,8.169 C11.4045,7.6515 11.6295,6.9735 11.6385,6.381 C11.6415,6.1635 11.541,5.9295 11.2905,5.9325 C10.9875,5.9385 10.86,6.243 10.815,6.5235 L10.815,6.5235 Z M10.815,15.426 C10.734,15.936 10.7115,16.4565 10.8045,16.9635 C10.845,17.187 10.9995,17.364 11.145,17.0715 C11.4045,16.554 11.6295,15.876 11.6385,15.2835 C11.6415,15.066 11.541,14.832 11.2905,14.835 C10.9875,14.841 10.86,15.1455 10.815,15.426 L10.815,15.426 Z" id="Shape" fill="#A8E3F0"></path>
        </g>
    </g>
</svg>