<?xml version="1.0" encoding="UTF-8"?>
<svg width="24px" height="24px" viewBox="0 0 24 24" version="1.1" xmlns="http://www.w3.org/2000/svg" xmlns:xlink="http://www.w3.org/1999/xlink">
    <title>🥬Icons/ ic_ai_draw</title>
    <g id="🥬Icons/-ic_ai_draw" stroke="none" stroke-width="1" fill="none" fill-rule="evenodd">
        <g id="#gr" fill="#000000" fill-rule="nonzero" opacity="0">
            <rect id="Rectangle" x="0" y="0" width="24" height="24"></rect>
        </g>
        <g id="Group" transform="translate(2, 2)" fill-rule="nonzero">
            <path d="M6.95542658,19.0170909 L6.83598519,19.2138182 C6.83598519,19.2138182 1.52340747,19.4871818 1.52340747,15.9725 C1.52340747,12.3796818 6.17644317,10.8060909 7.61724194,10.3099091 C7.93191795,10.2015 8.49306972,10.0435455 9.17784583,9.82531818 C9.28010075,10.0420909 9.37962767,10.26 9.47688125,10.4788636 C7.68771554,11.1192727 3.86718226,12.7168636 3.86718226,15.9725 C3.86718226,17.9211364 5.5001239,18.7050909 6.95542658,19.0170909 Z M12.3223326,18.7391364 L13.0597139,15.3998636 C13.2481285,14.4573636 13.7114811,13.5917273 14.3913013,12.9120455 L15.7744026,11.5293182 C15.1836519,11.4756364 14.5743053,11.6746364 14.1220921,12.1267727 L11.734992,14.5132273 C11.0551717,15.1928182 10.5918646,16.0584545 10.4034046,17.001 L9.96101218,19.2138182 C9.96101218,19.2138182 12.2732284,18.7505455 12.3223326,18.7391364 Z" id="Shape" fill="#FFAB00" opacity="0.48"></path>
            <path d="M19.1647286,10.0122273 C18.6261284,9.47377273 17.9100257,9.17722727 17.1483651,9.17722727 C16.3866591,9.17722727 15.6705564,9.47377273 15.1319561,10.0122273 L11.1823425,13.9607727 C10.3908102,14.7521364 9.85652938,15.7504091 9.6371064,16.8477727 L9.19466856,19.0606364 C9.14347289,19.3166818 9.2236764,19.5813636 9.40836272,19.766 C9.55631182,19.9139091 9.75568392,19.9947273 9.96083032,19.9947273 C10.0117532,19.9947273 10.0629943,19.9897727 10.1139626,19.9795909 L12.3274249,19.5372727 C13.42504,19.3179545 14.4235827,18.7837727 15.2151605,17.9924545 L19.1647286,14.0439091 C19.7033289,13.5054545 20,12.7895455 20,12.0280909 C20,11.2665909 19.7033289,10.5506818 19.1647286,10.0122273 Z M18.0598389,12.9393182 L14.1102253,16.8878636 C13.5376159,17.4603636 12.8152387,17.8468182 12.0211603,18.0054545 L10.9565542,18.2181818 L11.169339,17.1538636 C11.3280637,16.3600455 11.7145774,15.6378182 12.2872322,15.0653636 L16.2368459,11.1167727 C16.4803208,10.8734091 16.8040447,10.7393182 17.1483651,10.7393182 C17.4926401,10.7393182 17.8164094,10.8734091 18.0598844,11.1168182 C18.3033139,11.3601818 18.437441,11.6838636 18.437441,12.0280909 C18.437441,12.3722727 18.3033593,12.6959545 18.0598389,12.9393182 Z" id="Shape" fill="#FFAB00"></path>
            <path d="M11.9925162,0 C12.9826021,0 14.0703054,0.4418 14.9021213,1.18184091 C15.8974814,2.06739091 16.4456751,3.30679545 16.4456751,4.67177273 C16.4456751,8.34868182 10.829929,10.1142273 8.43182588,10.8681818 C8.20385513,10.9399091 7.97261077,11.0136364 7.83757425,11.0600909 C6.4691587,11.5311364 2.30490519,12.9646818 2.30490519,15.9724091 C2.30490519,16.5539091 2.49299242,17.0156818 2.87995162,17.3841364 C3.89646291,18.3520909 6.05277336,18.47 6.79711104,18.4336818 C7.22845497,18.4122273 7.59437211,18.7443636 7.6159234,19.1747273 C7.63752015,19.6050909 7.30688527,19.9715909 6.87635974,19.9937727 C6.85358085,19.9949545 6.74459683,20 6.57086803,20 C5.70563402,20 3.23374276,19.8745455 1.80599298,18.5187273 C1.10028394,17.8485909 0.742387146,16.9918636 0.742387146,15.9724091 C0.742387146,14.9868182 1.03735328,14.0588182 1.6190015,13.2141818 C2.08345894,12.5398636 2.73639462,11.9143636 3.55984005,11.3550455 C4.97611854,10.3930455 6.59933027,9.83422727 7.36299135,9.57136364 C7.51798782,9.518 7.72427088,9.45318182 7.9631082,9.37809091 C9.02998766,9.04263636 10.8155615,8.48127273 12.347203,7.62863636 C14.0299308,6.69190909 14.8831161,5.69709091 14.8831161,4.67177273 C14.8831161,3.50170909 14.3286025,2.76271818 13.8633403,2.34884091 C13.3262405,1.87088182 12.5918601,1.56209545 11.9925162,1.56209545 C11.5610358,1.56209545 11.2112594,1.21241818 11.2112594,0.781045455 C11.2112594,0.349672727 11.5610358,0 11.9925162,0 Z M0.781256749,0 C1.21274617,0 1.56251804,0.349672727 1.56251804,0.781045455 C1.56251804,1.98479545 2.41819037,3.2804 4.29693485,3.2804 C5.64675446,3.2804 6.49889402,2.61041364 7.48561543,1.83464091 C7.79147088,1.59419545 8.1076473,1.34558636 8.44696634,1.11197727 C8.80233518,0.867354545 9.28878492,0.956940909 9.53353293,1.3122 C9.77828094,1.66745909 9.68862033,2.15377727 9.33325149,2.39844091 C9.03462527,2.60405 8.75136685,2.82672727 8.45151302,3.06252273 C7.39036239,3.89681818 6.18758255,4.8425 4.29693485,4.8425 C2.65163078,4.8425 1.64611338,4.14404545 1.09231815,3.5581 C0.398166777,2.82360455 0,1.81140455 0,0.781045455 C0,0.349672727 0.349767323,0 0.781256749,0 Z" id="Combined-Shape" fill="#7A4100"></path>
        </g>
    </g>
</svg>