<?xml version="1.0" encoding="UTF-8"?>
<svg width="24px" height="24px" viewBox="0 0 24 24" version="1.1" xmlns="http://www.w3.org/2000/svg" xmlns:xlink="http://www.w3.org/1999/xlink">
    <title>🥬Icons/ ic_aigc_draw_style</title>
    <g id="🥬Icons/-ic_aigc_draw_style" stroke="none" stroke-width="1" fill="none" fill-rule="evenodd">
        <g id="#gr" fill="#000000" fill-rule="nonzero" opacity="0">
            <rect id="Rectangle" x="0" y="0" width="24" height="24"></rect>
        </g>
        <g id="Group" transform="translate(3, 3)" fill="#000000" fill-rule="nonzero">
            <path d="M4.32892176,11.3355391 L2.41961853,11.3355391 C2.21356155,10.9722793 1.82712161,10.7489036 1.40949786,10.7516543 C0.76455654,10.7516543 0.241728299,11.2744826 0.241728299,11.9194239 C0.241728299,12.5643652 0.76455654,13.0871935 1.40949786,13.0871935 C1.82712161,13.0899442 2.21356155,12.8665685 2.41961853,12.5033087 L4.32892176,12.5033087 L4.32892176,11.3355391 Z M16.5905021,4.91280654 C16.1728784,4.91005583 15.7864384,5.13343152 15.5803815,5.49669132 L13.6710782,5.49669132 L13.6710782,6.66446088 L15.5803815,6.66446088 C15.8638126,7.15537733 16.4588659,7.37184356 16.9914753,7.17778322 C17.5240847,6.98372289 17.8404049,6.43519068 17.7415888,5.87700831 C17.6427728,5.31882595 17.1573635,4.91222545 16.5905021,4.91280654 Z" id="Shape"></path>
            <path d="M14.4966913,2.57726742 L11.9194239,0 L9.34215648,2.57726742 L11.3355391,4.57065006 L11.3355391,10.1677696 L12.5033087,10.1677696 L12.5033087,4.57065006 L14.4966913,2.57726742 Z M11.9194239,1.65122616 L12.8454652,2.57726742 L11.9194239,3.50330868 L10.9933826,2.57726742 L11.9194239,1.65122616 Z M6.66446088,13.4293499 L6.66446088,7.83223044 L5.49669132,7.83223044 L5.49669132,13.4293499 L3.50330868,15.4227326 L6.0805761,18 L8.65784352,15.4227326 L6.66446088,13.4293499 Z M5.15453484,15.4227326 L6.0805761,14.4966913 L7.00661736,15.4227326 L6.0805761,16.3487738 L5.15453484,15.4227326 Z" id="Shape"></path>
            <path d="M10.1677696,5.49669132 L4.57065006,5.49669132 L2.57726742,3.50330868 L0,6.0805761 L2.57726742,8.65784352 L4.57065006,6.66446088 L10.1677696,6.66446088 L10.1677696,5.49669132 Z M2.57726742,7.00661736 L1.65122616,6.0805761 L2.57726742,5.15453484 L3.50330868,6.0805761 L2.57726742,7.00661736 Z" id="Shape"></path>
            <path d="M7.24834566,1.40949786 C7.24834566,0.76455654 6.72551742,0.241728299 6.0805761,0.241728299 C5.43563478,0.241728299 4.91280654,0.76455654 4.91280654,1.40949786 C4.90993136,1.82715454 5.13334086,2.21365297 5.49669132,2.41961853 L5.49669132,4.32892176 L6.66446088,4.32892176 L6.66446088,2.41961853 C7.02781134,2.21365297 7.25122083,1.82715454 7.24834566,1.40949786 L7.24834566,1.40949786 Z M12.5033087,15.5803815 L12.5033087,13.6710782 L11.3355391,13.6710782 L11.3355391,15.5803815 C10.8778108,15.844651 10.6546491,16.383411 10.7914451,16.8939406 C10.9282411,17.4044702 11.3908848,17.7594691 11.9194239,17.7594691 C12.447963,17.7594691 12.9106067,17.4044702 13.0474027,16.8939406 C13.1841987,16.383411 12.961037,15.844651 12.5033087,15.5803815 Z" id="Shape"></path>
            <path d="M18,11.9194239 L15.4227326,9.34215648 L13.4293499,11.3355391 L7.83223044,11.3355391 L7.83223044,12.5033087 L13.4293499,12.5033087 L15.4227326,14.4966913 L18,11.9194239 Z M15.4227326,10.9933826 L16.3487738,11.9194239 L15.4227326,12.8454652 L14.4966913,11.9194239 L15.4227326,10.9933826 Z" id="Shape"></path>
        </g>
    </g>
</svg>