<?xml version="1.0" encoding="UTF-8"?>
<svg width="24px" height="24px" viewBox="0 0 24 24" version="1.1" xmlns="http://www.w3.org/2000/svg" xmlns:xlink="http://www.w3.org/1999/xlink">
    <title>🥬/ ic_done_all</title>
    <g id="🥬/-ic_done_all" stroke="none" stroke-width="1" fill="none" fill-rule="evenodd">
        <g id="#gr" fill="#000000" fill-rule="nonzero">
            <rect id="Rectangle" opacity="0" x="0" y="0" width="24" height="24"></rect>
            <path d="M16.62,6.21 C16.4109067,6.04446062 16.1443521,5.96929983 15.87958,6.00122271 C15.614808,6.03314558 15.3737561,6.16950714 15.21,6.38 L8.21,15.38 L4.78,11.2 C4.56094067,10.9084017 4.20050185,10.7591891 3.83943332,10.8106289 C3.47836479,10.8620688 3.17393579,11.1060023 3.04502453,11.4471744 C2.91611327,11.7883466 2.98316641,12.1726439 3.22,12.45 L7.39,17.63 C7.58063005,17.8649915 7.86741159,18.0009979 8.17,18 C8.49171395,18.0143668 8.80065919,17.8729219 9,17.62 L16.83,7.62 C16.9912538,7.40593206 17.0598313,7.13609491 17.0203508,6.87101159 C16.9808703,6.60592827 16.8366364,6.36778642 16.62,6.21 Z" id="Path"></path>
            <path d="M21.62,6.21 C21.4109067,6.04446062 21.1443521,5.96929983 20.87958,6.00122271 C20.614808,6.03314558 20.3737561,6.16950714 20.21,6.38 L13.21,15.38 L12.6,14.63 L11.34,16.25 L12.44,17.62 C12.6306301,17.8549915 12.9174116,17.9910289 13.22,17.9900058 C13.524272,17.9885972 13.8113526,17.8487374 14,17.61 L21.83,7.61 C21.9880723,7.39659549 22.0547649,7.12907802 22.0153699,6.86644452 C21.9759749,6.60381102 21.8337281,6.36763445 21.62,6.21 L21.62,6.21 Z" id="Path"></path>
            <path d="M8.71,13.06 L10,11.44 L9.8,11.2 C9.64046734,10.9789797 9.3976246,10.832661 9.1276706,10.7949052 C8.8577166,10.7571494 8.58404895,10.8312288 8.37,11 C8.16252029,11.1666732 8.0300378,11.4091759 8.00188444,11.6738175 C7.97373108,11.9384591 8.0522295,12.2034066 8.22,12.41 L8.71,13.06 Z" id="Path"></path>
        </g>
    </g>
</svg>