<?xml version="1.0" encoding="UTF-8"?>
<svg width="24px" height="24px" viewBox="0 0 24 24" version="1.1" xmlns="http://www.w3.org/2000/svg" xmlns:xlink="http://www.w3.org/1999/xlink">
    <title>🥬Icons/ ic_aigc_wand</title>
    <g id="🥬Icons/-ic_aigc_wand" stroke="none" stroke-width="1" fill="none" fill-rule="evenodd">
        <g id="#gr" fill="#000000" fill-rule="nonzero" opacity="0">
            <rect id="Rectangle" x="0" y="0" width="24" height="24"></rect>
        </g>
        <g id="Group" transform="translate(3, 3)" fill="#000000" fill-rule="nonzero">
            <path d="M4.49999948,3.37499961 L2.24999974,1.12499987 L1.12499987,1.12499987 L1.12499987,2.24999974 L3.37499961,4.49999948 L4.49999948,3.37499961 Z M5.62499935,0 L6.74999921,0 L6.74999921,2.24999974 L5.62499935,2.24999974 L5.62499935,0 Z M10.1249988,5.62499935 L12.3749986,5.62499935 L12.3749986,6.74999921 L10.1249988,6.74999921 L10.1249988,5.62499935 Z M11.2499987,2.24999974 L11.2499987,1.12499987 L10.1249988,1.12499987 L7.87499908,3.37499961 L8.99999895,4.49999948 L11.2499987,2.24999974 Z M0,5.62499935 L2.24999974,5.62499935 L2.24999974,6.74999921 L0,6.74999921 L0,5.62499935 Z M5.62499935,10.1249988 L6.74999921,10.1249988 L6.74999921,12.3749986 L5.62499935,12.3749986 L5.62499935,10.1249988 Z M1.12499987,10.1249988 L1.12499987,11.2499987 L2.24999974,11.2499987 L4.49999948,8.99999895 L3.37499961,7.87499908 L1.12499987,10.1249988 Z M17.7536229,15.5036232 L6.57224924,4.3222495 C6.2421885,3.99372808 5.7086851,3.99372808 5.37862437,4.3222495 L4.3222495,5.37862437 C3.99372808,5.7086851 3.99372808,6.2421885 4.3222495,6.57224924 L15.5036232,17.7536229 C15.8336839,18.0821444 16.3671873,18.0821444 16.6972481,17.7536229 L17.7536229,16.6972481 C18.0821444,16.3671873 18.0821444,15.8336839 17.7536229,15.5036232 Z M8.43749902,9.56249941 L5.06249941,6.18749928 L6.18749928,5.06249941 L9.56249941,8.43749902 L8.43749902,9.56249941 Z" id="Shape"></path>
        </g>
    </g>
</svg>